<svg width="130" height="33" viewBox="0 0 130 33" fill="none" xmlns="http://www.w3.org/2000/svg">
<path d="M3.36719 18.7812C2.97656 18.2031 2.74219 17.5625 2.66406 16.8594C2.58594 16.1406 2.58594 15.3906 2.66406 14.6094C2.74219 13.8281 2.86719 13.0391 3.03906 12.2422C3.21094 11.4453 3.35938 10.6797 3.48438 9.94531C3.60938 9.19531 3.67969 8.5 3.69531 7.85938C3.71094 7.20312 3.60156 6.64062 3.36719 6.17188C3.24219 5.92188 3.07031 5.80469 2.85156 5.82031C2.64844 5.82031 2.42188 5.85156 2.17188 5.91406C1.9375 5.96094 1.69531 5.97656 1.44531 5.96094C1.21094 5.94531 1 5.79688 0.8125 5.51562C0.828125 5.45312 0.890625 5.375 1 5.28125C1.09375 5.17188 1.16406 5.10938 1.21094 5.09375C2.61719 4.89062 3.78906 5.03906 4.72656 5.53906C5.67969 6.02344 6.4375 6.71875 7 7.625C7.5625 8.51562 7.94531 9.53906 8.14844 10.6953C8.36719 11.8516 8.44531 13 8.38281 14.1406C8.32031 15.2812 8.14062 16.3438 7.84375 17.3281C7.54688 18.2969 7.17188 19.0469 6.71875 19.5781C6.26562 20.1094 5.75 20.3438 5.17188 20.2812C4.59375 20.2188 3.99219 19.7188 3.36719 18.7812ZM4.58594 17.9609C4.60156 18.0078 4.64844 18.0703 4.72656 18.1484C4.80469 18.2266 4.88281 18.3125 4.96094 18.4062C5.05469 18.5 5.14062 18.5859 5.21875 18.6641C5.29688 18.7266 5.35156 18.7656 5.38281 18.7812C5.96094 18.4531 6.39062 18.0078 6.67188 17.4453C6.95312 16.8828 7.11719 16.2578 7.16406 15.5703C7.22656 14.8828 7.19531 14.1641 7.07031 13.4141C6.96094 12.6484 6.79688 11.9141 6.57812 11.2109C6.35938 10.5078 6.10156 9.85938 5.80469 9.26562C5.52344 8.67188 5.25 8.1875 4.98438 7.8125C4.96875 8.01562 4.9375 8.32812 4.89062 8.75C4.84375 9.17188 4.79688 9.64844 4.75 10.1797C4.70312 10.7109 4.64844 11.2734 4.58594 11.8672C4.52344 12.4609 4.46094 13.0312 4.39844 13.5781C4.35156 14.1094 4.30469 14.5859 4.25781 15.0078C4.21094 15.4297 4.17969 15.7422 4.16406 15.9453C4.14844 16.1016 4.14844 16.2812 4.16406 16.4844C4.19531 16.6719 4.23438 16.8594 4.28125 17.0469C4.32812 17.2344 4.375 17.4141 4.42188 17.5859C4.48438 17.7422 4.53906 17.8672 4.58594 17.9609ZM11.4812 18.7812C11.45 18.7188 11.4109 18.6172 11.3641 18.4766C11.3172 18.3203 11.2703 18.1562 11.2234 17.9844C11.1922 17.7969 11.1609 17.625 11.1297 17.4688C11.0984 17.3125 11.0828 17.2031 11.0828 17.1406V8.1875C11.0828 8.04688 11.1375 7.94531 11.2469 7.88281C11.3562 7.82031 11.4812 7.78125 11.6219 7.76562C11.7625 7.75 11.8953 7.75 12.0203 7.76562C12.1609 7.78125 12.2547 7.79688 12.3016 7.8125C12.2859 8.01562 12.2781 8.32812 12.2781 8.75C12.2781 9.17188 12.2703 9.64844 12.2547 10.1797C12.2547 10.7109 12.2547 11.2734 12.2547 11.8672C12.2703 12.4609 12.2781 13.0312 12.2781 13.5781V15.0078C12.2781 15.4297 12.2859 15.7422 12.3016 15.9453C12.3328 16.8203 12.45 17.4297 12.6531 17.7734C12.8719 18.1172 13.1297 18.2812 13.4266 18.2656C13.7391 18.2344 14.0594 18.0625 14.3875 17.75C14.7312 17.4219 15.0437 17.0391 15.325 16.6016C15.6219 16.1484 15.8641 15.6797 16.0516 15.1953C16.2547 14.7109 16.3562 14.2812 16.3562 13.9062V7.8125H17.9969C17.9656 8.17188 17.9266 8.64062 17.8797 9.21875C17.8328 9.79688 17.8016 10.4219 17.7859 11.0938C17.7859 11.7656 17.8016 12.4531 17.8328 13.1562C17.8641 13.8438 17.9344 14.5 18.0437 15.125C18.1687 15.7344 18.3406 16.2734 18.5594 16.7422C18.7781 17.1953 19.0594 17.5234 19.4031 17.7266C19.7625 17.9141 20.1922 17.9453 20.6922 17.8203C21.1922 17.6797 21.7859 17.3203 22.4734 16.7422C22.6141 17.1484 22.5594 17.5391 22.3094 17.9141C22.0594 18.2891 21.7312 18.6172 21.325 18.8984C20.9187 19.1797 20.4812 19.3906 20.0125 19.5312C19.5437 19.6562 19.1453 19.6797 18.8172 19.6016C18.7703 19.5859 18.6922 19.5234 18.5828 19.4141C18.4891 19.3047 18.4266 19.2266 18.3953 19.1797C18.3328 19.0703 18.2234 18.8672 18.0672 18.5703C17.9109 18.2578 17.7469 17.9297 17.575 17.5859C17.4031 17.2422 17.2391 16.9141 17.0828 16.6016C16.9422 16.2891 16.8406 16.0703 16.7781 15.9453C16.6844 16.1172 16.5281 16.3828 16.3094 16.7422C16.0906 17.0859 15.825 17.4609 15.5125 17.8672C15.2156 18.2578 14.8875 18.6328 14.5281 18.9922C14.1844 19.3359 13.8328 19.5859 13.4734 19.7422C13.1141 19.8828 12.7625 19.8984 12.4187 19.7891C12.075 19.6641 11.7625 19.3281 11.4812 18.7812ZM24.3062 19.7422C24.0562 20.2578 23.8453 20.5156 23.6734 20.5156C23.5016 20.5312 23.3531 20.3594 23.2281 20C23.1187 19.6562 23.025 19.1641 22.9469 18.5234C22.8844 17.8828 22.8375 17.1719 22.8062 16.3906C22.7906 15.6094 22.7906 14.7891 22.8062 13.9297C22.8219 13.0703 22.8453 12.2422 22.8766 11.4453C22.9234 10.6484 22.9781 9.92188 23.0406 9.26562C23.1031 8.59375 23.1656 8.07031 23.2281 7.69531C23.3062 7.30469 23.3844 7.09375 23.4625 7.0625C23.5406 7.03125 23.6187 7.24219 23.6969 7.69531C24.1969 7.32031 24.7359 6.96875 25.3141 6.64062C25.8922 6.29688 26.4859 6.01562 27.0953 5.79688C27.7203 5.5625 28.3453 5.41406 28.9703 5.35156C29.6109 5.28906 30.2281 5.34375 30.8219 5.51562C30.8844 5.71875 30.8922 5.95312 30.8453 6.21875C30.7984 6.48438 30.65 6.65625 30.4 6.73438C30.15 6.6875 29.8219 6.66406 29.4156 6.66406C29.0094 6.66406 28.5797 6.69531 28.1266 6.75781C27.6734 6.82031 27.2203 6.92188 26.7672 7.0625C26.3141 7.20312 25.9 7.39062 25.525 7.625C25.1656 7.84375 24.8687 8.11719 24.6344 8.44531C24.4156 8.75781 24.3062 9.13281 24.3062 9.57031V19.7422ZM48.1047 31.7891C47.7922 31.5859 47.5344 31.2656 47.3312 30.8281C47.1281 30.4062 46.9641 29.9531 46.8391 29.4688C46.7141 28.9844 46.6203 28.5078 46.5578 28.0391C46.5109 27.5703 46.4797 27.1953 46.4641 26.9141C46.4016 25.5703 46.3781 24.1484 46.3937 22.6484C46.425 21.1641 46.5656 19.6875 46.8156 18.2188C47.0656 16.7344 47.4484 15.3125 47.9641 13.9531C48.4953 12.5781 49.2219 11.3359 50.1437 10.2266C50.6281 9.64844 51.0969 9.125 51.55 8.65625C52.0187 8.17188 52.5031 7.74219 53.0031 7.36719C53.5187 6.99219 54.0656 6.67188 54.6437 6.40625C55.2375 6.125 55.9016 5.90625 56.6359 5.75C57.3078 5.60938 57.8156 5.67969 58.1594 5.96094C58.5187 6.24219 58.7531 6.66406 58.8625 7.22656C58.9719 7.77344 58.9719 8.42969 58.8625 9.19531C58.7531 9.94531 58.5656 10.7266 58.3 11.5391C58.0344 12.3359 57.7062 13.1172 57.3156 13.8828C56.9406 14.6484 56.5344 15.3203 56.0969 15.8984C55.6594 16.4766 55.2062 16.9297 54.7375 17.2578C54.2687 17.5703 53.8156 17.6719 53.3781 17.5625C53.3156 17.4531 53.3859 17.1953 53.5891 16.7891C53.7922 16.3828 54.0578 15.8828 54.3859 15.2891C54.7297 14.6953 55.0969 14.0391 55.4875 13.3203C55.8937 12.5859 56.2531 11.8438 56.5656 11.0938C56.8937 10.3438 57.1437 9.60938 57.3156 8.89062C57.5031 8.17188 57.55 7.53125 57.4562 6.96875C57.4094 6.71875 57.2687 6.57031 57.0344 6.52344C56.8 6.47656 56.5422 6.48438 56.2609 6.54688C55.9953 6.60938 55.7375 6.6875 55.4875 6.78125C55.2375 6.875 55.0812 6.9375 55.0187 6.96875C53.8312 7.48438 52.8 8.23438 51.925 9.21875C51.0656 10.1875 50.3391 11.3047 49.7453 12.5703C49.1516 13.8203 48.6828 15.1562 48.3391 16.5781C48.0109 18 47.7766 19.3984 47.6359 20.7734C47.4953 22.1641 47.4406 23.4844 47.4719 24.7344C47.5031 26 47.6047 27.0859 47.7766 27.9922C47.9484 28.9141 48.1672 29.6094 48.4328 30.0781C48.6984 30.5625 48.9953 30.7266 49.3234 30.5703C49.3547 30.5547 49.4172 30.4922 49.5109 30.3828C49.6203 30.2734 49.6906 30.1953 49.7219 30.1484C49.9406 29.4922 50.1203 28.7734 50.2609 27.9922C50.4016 27.2109 50.5031 26.3984 50.5656 25.5547C50.6437 24.7109 50.6906 23.8594 50.7062 23C50.7219 22.1406 50.7219 21.3047 50.7062 20.4922C50.6906 19.6953 50.6594 18.9375 50.6125 18.2188C50.5812 17.5 50.55 16.8672 50.5187 16.3203C50.4719 16.2109 50.4328 16.0078 50.4016 15.7109C50.3859 15.4141 50.3703 15.0938 50.3547 14.75C50.3547 14.4062 50.3625 14.0703 50.3781 13.7422C50.4094 13.3984 50.4641 13.1406 50.5422 12.9688C50.6203 12.7969 50.7219 12.7344 50.8469 12.7812C50.9719 12.8281 51.1359 13.0547 51.3391 13.4609C51.3703 13.6641 51.4016 14.0156 51.4328 14.5156C51.4797 15.0156 51.5266 15.5547 51.5734 16.1328C51.6203 16.6953 51.6594 17.2266 51.6906 17.7266C51.7219 18.2266 51.7375 18.5781 51.7375 18.7812C51.7531 19 51.7609 19.3047 51.7609 19.6953C51.7766 20.0703 51.7844 20.4766 51.7844 20.9141V23.6094C51.7844 24.0156 51.7766 24.3672 51.7609 24.6641C51.7609 24.9766 51.7531 25.1797 51.7375 25.2734C51.7375 25.4141 51.6984 25.6875 51.6203 26.0938C51.5578 26.5156 51.4875 26.9609 51.4094 27.4297C51.3312 27.9141 51.2453 28.375 51.1516 28.8125C51.0578 29.25 50.9875 29.5625 50.9406 29.75C50.8469 30.0781 50.7141 30.4141 50.5422 30.7578C50.3703 31.1016 50.1594 31.3906 49.9094 31.625C49.675 31.8594 49.4016 32 49.0891 32.0469C48.7922 32.1094 48.4641 32.0234 48.1047 31.7891ZM63.0156 19.7422C62.7656 20.2578 62.5547 20.5156 62.3828 20.5156C62.2109 20.5312 62.0625 20.3594 61.9375 20C61.8281 19.6562 61.7344 19.1641 61.6562 18.5234C61.5938 17.8828 61.5469 17.1719 61.5156 16.3906C61.5 15.6094 61.5 14.7891 61.5156 13.9297C61.5312 13.0703 61.5547 12.2422 61.5859 11.4453C61.6328 10.6484 61.6875 9.92188 61.75 9.26562C61.8125 8.59375 61.875 8.07031 61.9375 7.69531C62.0156 7.30469 62.0938 7.09375 62.1719 7.0625C62.25 7.03125 62.3281 7.24219 62.4062 7.69531C62.9062 7.32031 63.4453 6.96875 64.0234 6.64062C64.6016 6.29688 65.1953 6.01562 65.8047 5.79688C66.4297 5.5625 67.0547 5.41406 67.6797 5.35156C68.3203 5.28906 68.9375 5.34375 69.5312 5.51562C69.5938 5.71875 69.6016 5.95312 69.5547 6.21875C69.5078 6.48438 69.3594 6.65625 69.1094 6.73438C68.8594 6.6875 68.5312 6.66406 68.125 6.66406C67.7188 6.66406 67.2891 6.69531 66.8359 6.75781C66.3828 6.82031 65.9297 6.92188 65.4766 7.0625C65.0234 7.20312 64.6094 7.39062 64.2344 7.625C63.875 7.84375 63.5781 8.11719 63.3438 8.44531C63.125 8.75781 63.0156 9.13281 63.0156 9.57031V19.7422ZM74.1531 18.7812C73.7625 18.2031 73.5281 17.5625 73.45 16.8594C73.3719 16.1406 73.3719 15.3906 73.45 14.6094C73.5281 13.8281 73.6531 13.0391 73.825 12.2422C73.9969 11.4453 74.1453 10.6797 74.2703 9.94531C74.3953 9.19531 74.4656 8.5 74.4812 7.85938C74.4969 7.20312 74.3875 6.64062 74.1531 6.17188C74.0281 5.92188 73.8562 5.80469 73.6375 5.82031C73.4344 5.82031 73.2078 5.85156 72.9578 5.91406C72.7234 5.96094 72.4812 5.97656 72.2312 5.96094C71.9969 5.94531 71.7859 5.79688 71.5984 5.51562C71.6141 5.45312 71.6766 5.375 71.7859 5.28125C71.8797 5.17188 71.95 5.10938 71.9969 5.09375C73.4031 4.89062 74.575 5.03906 75.5125 5.53906C76.4656 6.02344 77.2234 6.71875 77.7859 7.625C78.3484 8.51562 78.7312 9.53906 78.9344 10.6953C79.1531 11.8516 79.2312 13 79.1687 14.1406C79.1062 15.2812 78.9266 16.3438 78.6297 17.3281C78.3328 18.2969 77.9578 19.0469 77.5047 19.5781C77.0516 20.1094 76.5359 20.3438 75.9578 20.2812C75.3797 20.2188 74.7781 19.7188 74.1531 18.7812ZM75.3719 17.9609C75.3875 18.0078 75.4344 18.0703 75.5125 18.1484C75.5906 18.2266 75.6687 18.3125 75.7469 18.4062C75.8406 18.5 75.9266 18.5859 76.0047 18.6641C76.0828 18.7266 76.1375 18.7656 76.1687 18.7812C76.7469 18.4531 77.1766 18.0078 77.4578 17.4453C77.7391 16.8828 77.9031 16.2578 77.95 15.5703C78.0125 14.8828 77.9812 14.1641 77.8562 13.4141C77.7469 12.6484 77.5828 11.9141 77.3641 11.2109C77.1453 10.5078 76.8875 9.85938 76.5906 9.26562C76.3094 8.67188 76.0359 8.1875 75.7703 7.8125C75.7547 8.01562 75.7234 8.32812 75.6766 8.75C75.6297 9.17188 75.5828 9.64844 75.5359 10.1797C75.4891 10.7109 75.4344 11.2734 75.3719 11.8672C75.3094 12.4609 75.2469 13.0312 75.1844 13.5781C75.1375 14.1094 75.0906 14.5859 75.0437 15.0078C74.9969 15.4297 74.9656 15.7422 74.95 15.9453C74.9344 16.1016 74.9344 16.2812 74.95 16.4844C74.9812 16.6719 75.0203 16.8594 75.0672 17.0469C75.1141 17.2344 75.1609 17.4141 75.2078 17.5859C75.2703 17.7422 75.325 17.8672 75.3719 17.9609ZM88.5719 19.6016C88.6031 18.9766 88.6188 18.3203 88.6188 17.6328C88.6344 16.9297 88.6266 16.2266 88.5953 15.5234C88.5641 14.8203 88.5094 14.125 88.4313 13.4375C88.3688 12.7344 88.275 12.0703 88.15 11.4453C87.9313 10.3047 87.65 9.4375 87.3063 8.84375C86.9781 8.23438 86.6266 7.91406 86.2516 7.88281C85.8922 7.83594 85.5484 8.07812 85.2203 8.60938C84.9078 9.125 84.6656 9.9375 84.4938 11.0469C84.4625 11.2188 84.4234 11.4844 84.3766 11.8438C84.3297 12.2031 84.275 12.6094 84.2125 13.0625C84.1656 13.5156 84.1109 14 84.0484 14.5156C84.0016 15.0156 83.9469 15.4922 83.8844 15.9453C83.8375 16.3984 83.7984 16.8047 83.7672 17.1641C83.7359 17.5234 83.7125 17.7891 83.6969 17.9609C83.6031 18.2109 83.4234 18.3594 83.1578 18.4062C82.9078 18.4531 82.6734 18.4375 82.4547 18.3594L81.6578 6.17188C81.6422 5.96875 81.6891 5.79688 81.7984 5.65625C81.9078 5.5 82.0328 5.39844 82.1734 5.35156C82.3141 5.28906 82.4547 5.28906 82.5953 5.35156C82.7359 5.41406 82.8297 5.55469 82.8766 5.77344L83.6969 9.40625C84.1813 8.23438 84.6266 7.40625 85.0328 6.92188C85.4547 6.42188 85.8453 6.16406 86.2047 6.14844C86.5641 6.13281 86.9078 6.30469 87.2359 6.66406C87.5641 7.02344 87.8688 7.46094 88.15 7.97656C88.4469 8.47656 88.7281 9.01562 88.9938 9.59375C89.2594 10.1562 89.525 10.6406 89.7906 11.0469C90.4313 8.84375 91.1578 7.25781 91.9703 6.28906C92.7984 5.30469 93.5875 4.89844 94.3375 5.07031C95.1031 5.24219 95.775 5.97656 96.3531 7.27344C96.9313 8.55469 97.3141 10.3594 97.5016 12.6875C97.5328 13.0469 97.5563 13.5234 97.5719 14.1172C97.5875 14.6953 97.5953 15.2656 97.5953 15.8281C97.5953 16.3906 97.5875 16.8828 97.5719 17.3047C97.5563 17.7109 97.5328 17.9297 97.5016 17.9609L97.1031 18.3594L96.2828 17.5625C96.3766 16.75 96.4 15.9062 96.3531 15.0312C96.3219 14.1406 96.2359 13.25 96.0953 12.3594C95.9703 11.4688 95.8141 10.6016 95.6266 9.75781C95.4391 8.91406 95.2516 8.125 95.0641 7.39062C94.8453 6.76562 94.5797 6.40625 94.2672 6.3125C93.9547 6.20312 93.6344 6.25781 93.3063 6.47656C92.9938 6.67969 92.7047 6.99219 92.4391 7.41406C92.1734 7.82031 91.9703 8.21875 91.8297 8.60938C91.7359 8.84375 91.6188 9.15625 91.4781 9.54688C91.3531 9.9375 91.2281 10.3281 91.1031 10.7188C90.9781 11.1094 90.8688 11.4531 90.775 11.75C90.6813 12.0469 90.6266 12.2188 90.6109 12.2656C90.5484 12.5469 90.4703 13.0312 90.3766 13.7188C90.2984 14.4062 90.2125 15.1406 90.1188 15.9219C90.0406 16.7031 89.9703 17.4453 89.9078 18.1484C89.8453 18.8359 89.8063 19.3203 89.7906 19.6016C89.7906 19.8359 89.7281 19.9688 89.6031 20C89.4781 20.0312 89.3375 20.0156 89.1813 19.9531C89.0094 19.8906 88.8063 19.7734 88.5719 19.6016ZM100.553 18.7812C100.522 18.7188 100.483 18.6016 100.436 18.4297C100.389 18.2422 100.342 18.0391 100.295 17.8203C100.248 17.6016 100.209 17.3906 100.178 17.1875C100.147 16.9844 100.131 16.8359 100.131 16.7422V5.35156C100.131 5.19531 100.202 5.08594 100.342 5.02344C100.483 4.96094 100.639 4.92969 100.811 4.92969C100.998 4.91406 101.162 4.91406 101.303 4.92969C101.459 4.94531 101.545 4.95312 101.561 4.95312V17.5625C101.561 17.8281 101.647 18.0469 101.819 18.2188C101.991 18.3906 102.194 18.5312 102.428 18.6406C102.662 18.7344 102.905 18.7969 103.155 18.8281C103.405 18.8438 103.616 18.8281 103.787 18.7812C104.006 19.1094 103.998 19.375 103.764 19.5781C103.545 19.7656 103.225 19.875 102.803 19.9062C102.397 19.9219 101.967 19.8438 101.514 19.6719C101.077 19.4844 100.756 19.1875 100.553 18.7812ZM99.7328 1.27344C99.7328 0.820312 99.9125 0.53125 100.272 0.40625C100.631 0.265625 100.998 0.28125 101.373 0.453125V1.69531C101.327 1.71094 101.241 1.72656 101.116 1.74219C101.006 1.74219 100.881 1.74219 100.741 1.74219C100.616 1.74219 100.491 1.74219 100.366 1.74219C100.256 1.72656 100.178 1.71094 100.131 1.69531C100.069 1.67969 99.9828 1.61719 99.8734 1.50781C99.7797 1.39844 99.7328 1.32031 99.7328 1.27344ZM107.448 19.6016C107.073 19.3203 106.792 18.9297 106.605 18.4297C106.433 17.9141 106.339 17.4375 106.323 17C106.323 16.5469 106.386 16.2031 106.511 15.9688C106.636 15.7188 106.808 15.7109 107.027 15.9453C106.995 16.7891 107.152 17.4297 107.495 17.8672C107.839 18.3047 108.253 18.5781 108.738 18.6875C109.238 18.7969 109.761 18.7656 110.308 18.5938C110.87 18.4219 111.347 18.1562 111.738 17.7969C112.144 17.4219 112.417 16.9688 112.558 16.4375C112.714 15.9062 112.636 15.3359 112.323 14.7266C111.917 14.2734 111.456 13.8359 110.941 13.4141C110.441 12.9766 109.933 12.5469 109.417 12.125C108.902 11.7031 108.402 11.2734 107.917 10.8359C107.433 10.3828 107.003 9.90625 106.628 9.40625C106.597 9.375 106.581 9.3125 106.581 9.21875C106.581 9.10938 106.597 9.03906 106.628 9.00781C106.738 8.86719 106.894 8.64844 107.097 8.35156C107.3 8.05469 107.534 7.71875 107.8 7.34375C108.066 6.96875 108.347 6.57812 108.644 6.17188C108.941 5.75 109.222 5.35156 109.488 4.97656C109.753 4.60156 109.988 4.26562 110.191 3.96875C110.409 3.67188 110.573 3.45312 110.683 3.3125C110.902 3.03125 111.12 2.86719 111.339 2.82031C111.573 2.77344 111.902 2.80469 112.323 2.91406C112.308 2.97656 112.245 3.11719 112.136 3.33594C112.027 3.53906 111.948 3.67188 111.902 3.73438C111.777 3.92188 111.542 4.25 111.198 4.71875C110.855 5.17188 110.488 5.66406 110.097 6.19531C109.706 6.71094 109.339 7.20312 108.995 7.67188C108.652 8.125 108.409 8.4375 108.269 8.60938C108.144 8.79688 108.191 9.01562 108.409 9.26562C108.628 9.51562 108.941 9.79688 109.347 10.1094C109.753 10.4219 110.214 10.7734 110.73 11.1641C111.245 11.5391 111.73 11.9453 112.183 12.3828C112.652 12.8203 113.042 13.2891 113.355 13.7891C113.683 14.2891 113.855 14.8281 113.87 15.4062C113.902 15.9688 113.738 16.5625 113.378 17.1875C113.034 17.8125 112.409 18.4766 111.503 19.1797C111.222 19.3984 110.909 19.5859 110.566 19.7422C110.238 19.8984 109.894 20 109.534 20.0469C109.175 20.1094 108.816 20.1094 108.456 20.0469C108.097 19.9844 107.761 19.8359 107.448 19.6016ZM120.438 19.6016C119.781 19.0859 119.258 18.4844 118.867 17.7969C118.492 17.0938 118.203 16.3438 118 15.5469C117.906 15.625 117.766 15.7109 117.578 15.8047C117.391 15.8984 117.195 15.9766 116.992 16.0391C116.805 16.1016 116.617 16.1484 116.43 16.1797C116.242 16.1953 116.102 16.1719 116.008 16.1094C115.93 16.0469 115.906 15.9453 115.938 15.8047C115.984 15.6484 116.133 15.4219 116.383 15.125C116.414 15.0781 116.508 14.9766 116.664 14.8203C116.836 14.6641 117.016 14.5 117.203 14.3281C117.391 14.1406 117.562 13.9688 117.719 13.8125C117.875 13.6406 117.969 13.5312 118 13.4844C118.172 13.0938 118.273 12.6641 118.305 12.1953C118.352 11.7266 118.375 11.2422 118.375 10.7422C118.391 10.2266 118.422 9.71875 118.469 9.21875C118.516 8.71875 118.633 8.25 118.82 7.8125C118.93 7.5625 119.133 7.25781 119.43 6.89844C119.742 6.52344 120.086 6.16406 120.461 5.82031C120.852 5.47656 121.242 5.17188 121.633 4.90625C122.039 4.625 122.383 4.45312 122.664 4.39062C122.961 4.32812 123.172 4.39844 123.297 4.60156C123.438 4.80469 123.438 5.19531 123.297 5.77344C123.125 6.46094 122.859 7.13281 122.5 7.78906C122.156 8.42969 121.797 9.07031 121.422 9.71094C121.047 10.3359 120.688 10.9609 120.344 11.5859C120.016 12.2109 119.781 12.8438 119.641 13.4844C119.562 13.8281 119.523 14.25 119.523 14.75C119.523 15.2344 119.578 15.7188 119.688 16.2031C119.797 16.6875 119.977 17.1328 120.227 17.5391C120.477 17.9297 120.82 18.2031 121.258 18.3594C121.758 18.5469 122.258 18.5938 122.758 18.5C123.258 18.4062 123.742 18.2266 124.211 17.9609C124.695 17.6953 125.156 17.3672 125.594 16.9766C126.031 16.5703 126.438 16.1562 126.812 15.7344C127.188 15.3125 127.523 14.9062 127.82 14.5156C128.117 14.1094 128.367 13.7656 128.57 13.4844L128.969 13.9062C129.078 14 129.008 14.2656 128.758 14.7031C128.523 15.1406 128.172 15.6406 127.703 16.2031C127.25 16.75 126.711 17.3125 126.086 17.8906C125.461 18.4688 124.812 18.9531 124.141 19.3438C123.484 19.7344 122.828 19.9766 122.172 20.0703C121.531 20.1641 120.953 20.0078 120.438 19.6016ZM119.641 9.40625C119.625 9.48438 119.609 9.625 119.594 9.82812C119.594 10.0156 119.594 10.2188 119.594 10.4375C119.594 10.6562 119.594 10.8594 119.594 11.0469C119.609 11.2344 119.625 11.3672 119.641 11.4453C120.141 10.5859 120.609 9.67188 121.047 8.70312C121.484 7.73438 121.828 6.75781 122.078 5.77344C121.719 5.89844 121.391 6.09375 121.094 6.35938C120.812 6.60938 120.57 6.90625 120.367 7.25C120.164 7.57812 120 7.92969 119.875 8.30469C119.766 8.67969 119.688 9.04688 119.641 9.40625Z" fill="#C2410C"/>
</svg>
