<svg width="175" height="88" viewBox="0 0 175 88" fill="none" xmlns="http://www.w3.org/2000/svg">
<g filter="url(#filter0_d_1_3)">
<path d="M36 50.36C34.2667 50.36 32.7067 50.0533 31.32 49.44C29.96 48.8 28.88 47.9467 28.08 46.88C27.28 45.7867 26.8533 44.5733 26.8 43.24H31.52C31.6 44.1733 32.04 44.96 32.84 45.6C33.6667 46.2133 34.6933 46.52 35.92 46.52C37.2 46.52 38.1867 46.28 38.88 45.8C39.6 45.2933 39.96 44.6533 39.96 43.88C39.96 43.0533 39.56 42.44 38.76 42.04C37.9867 41.64 36.7467 41.2 35.04 40.72C33.3867 40.2667 32.04 39.8267 31 39.4C29.96 38.9733 29.0533 38.32 28.28 37.44C27.5333 36.56 27.16 35.4 27.16 33.96C27.16 32.7867 27.5067 31.72 28.2 30.76C28.8933 29.7733 29.88 29 31.16 28.44C32.4667 27.88 33.96 27.6 35.64 27.6C38.1467 27.6 40.16 28.24 41.68 29.52C43.2267 30.7733 44.0533 32.4933 44.16 34.68H39.6C39.52 33.6933 39.12 32.9067 38.4 32.32C37.68 31.7333 36.7067 31.44 35.48 31.44C34.28 31.44 33.36 31.6667 32.72 32.12C32.08 32.5733 31.76 33.1733 31.76 33.92C31.76 34.5067 31.9733 35 32.4 35.4C32.8267 35.8 33.3467 36.12 33.96 36.36C34.5733 36.5733 35.48 36.8533 36.68 37.2C38.28 37.6267 39.5867 38.0667 40.6 38.52C41.64 38.9467 42.5333 39.5867 43.28 40.44C44.0267 41.2933 44.4133 42.4267 44.44 43.84C44.44 45.0933 44.0933 46.2133 43.4 47.2C42.7067 48.1867 41.72 48.96 40.44 49.52C39.1867 50.08 37.7067 50.36 36 50.36ZM49.8472 38.88C49.8472 36.6667 50.3005 34.7067 51.2072 33C52.1405 31.2933 53.3939 29.9733 54.9672 29.04C56.5672 28.08 58.3272 27.6 60.2472 27.6C61.9805 27.6 63.4872 27.9467 64.7672 28.64C66.0739 29.3067 67.1139 30.1467 67.8872 31.16V27.96H72.4872V50H67.8872V46.72C67.1139 47.76 66.0605 48.6267 64.7272 49.32C63.3939 50.0133 61.8739 50.36 60.1672 50.36C58.2739 50.36 56.5405 49.88 54.9672 48.92C53.3939 47.9333 52.1405 46.5733 51.2072 44.84C50.3005 43.08 49.8472 41.0933 49.8472 38.88ZM67.8872 38.96C67.8872 37.44 67.5672 36.12 66.9272 35C66.3139 33.88 65.5005 33.0267 64.4872 32.44C63.4739 31.8533 62.3805 31.56 61.2072 31.56C60.0339 31.56 58.9405 31.8533 57.9272 32.44C56.9139 33 56.0872 33.84 55.4472 34.96C54.8339 36.0533 54.5272 37.36 54.5272 38.88C54.5272 40.4 54.8339 41.7333 55.4472 42.88C56.0872 44.0267 56.9139 44.9067 57.9272 45.52C58.9672 46.1067 60.0605 46.4 61.2072 46.4C62.3805 46.4 63.4739 46.1067 64.4872 45.52C65.5005 44.9333 66.3139 44.08 66.9272 42.96C67.5672 41.8133 67.8872 40.48 67.8872 38.96ZM88.9966 45.92L95.2366 27.96H100.077L91.6766 50H86.2366L77.8766 27.96H82.7566L88.9966 45.92ZM150.41 27.96L136.89 60.36H132.17L136.65 49.64L127.97 27.96H133.05L139.25 44.76L145.69 27.96H150.41Z" fill="#2C4259"/>
<path d="M114.043 45.92L120.283 27.96H125.123L116.723 50H111.283L102.923 27.96H107.803L114.043 45.92Z" fill="#C2410C"/>
</g>
<path d="M70.28 63.01L68.3 70H67.52L65.76 64.04L63.96 70L63.2 70.01L61.26 63.01H62.01L63.61 69.14L65.4 63.01H66.18L67.92 69.14L69.53 63.01H70.28ZM72.5508 63.58V66.19H75.2008V66.77H72.5508V69.42H75.5008V70H71.8508V63H75.5008V63.58H72.5508ZM80.6501 66.39C81.0434 66.4633 81.3767 66.6633 81.6501 66.99C81.9234 67.3167 82.0601 67.6967 82.0601 68.13C82.0601 68.4833 81.9701 68.8033 81.7901 69.09C81.6167 69.37 81.3601 69.5933 81.0201 69.76C80.6801 69.92 80.2734 70 79.8001 70H77.3801V63.01H79.7301C80.4367 63.01 80.9734 63.1733 81.3401 63.5C81.7134 63.8267 81.9001 64.25 81.9001 64.77C81.9001 65.2033 81.7834 65.5567 81.5501 65.83C81.3167 66.0967 81.0167 66.2833 80.6501 66.39ZM78.0801 66.1H79.7101C80.1834 66.1 80.5467 65.99 80.8001 65.77C81.0601 65.5433 81.1901 65.2333 81.1901 64.84C81.1901 64.4533 81.0601 64.15 80.8001 63.93C80.5467 63.71 80.1734 63.6 79.6801 63.6H78.0801V66.1ZM79.7501 69.41C80.2567 69.41 80.6501 69.29 80.9301 69.05C81.2167 68.81 81.3601 68.48 81.3601 68.06C81.3601 67.64 81.2101 67.3067 80.9101 67.06C80.6167 66.8067 80.2201 66.68 79.7201 66.68H78.0801V69.41H79.7501ZM85.9669 70.07C85.5069 70.07 85.1002 69.99 84.7469 69.83C84.4002 69.67 84.1269 69.4467 83.9269 69.16C83.7269 68.8733 83.6202 68.5533 83.6069 68.2H84.3469C84.3802 68.54 84.5302 68.84 84.7969 69.1C85.0635 69.3533 85.4535 69.48 85.9669 69.48C86.4402 69.48 86.8135 69.36 87.0869 69.12C87.3669 68.8733 87.5069 68.5633 87.5069 68.19C87.5069 67.89 87.4302 67.65 87.2769 67.47C87.1235 67.2833 86.9335 67.1467 86.7069 67.06C86.4802 66.9667 86.1669 66.8667 85.7669 66.76C85.3002 66.6333 84.9302 66.51 84.6569 66.39C84.3835 66.27 84.1502 66.0833 83.9569 65.83C83.7635 65.5767 83.6669 65.2333 83.6669 64.8C83.6669 64.44 83.7602 64.12 83.9469 63.84C84.1335 63.5533 84.3969 63.33 84.7369 63.17C85.0769 63.01 85.4669 62.93 85.9069 62.93C86.5535 62.93 87.0735 63.09 87.4669 63.41C87.8669 63.7233 88.0969 64.13 88.1569 64.63H87.3969C87.3502 64.3433 87.1935 64.09 86.9269 63.87C86.6602 63.6433 86.3002 63.53 85.8469 63.53C85.4269 63.53 85.0769 63.6433 84.7969 63.87C84.5169 64.09 84.3769 64.3933 84.3769 64.78C84.3769 65.0733 84.4535 65.31 84.6069 65.49C84.7602 65.67 84.9502 65.8067 85.1769 65.9C85.4102 65.9933 85.7235 66.0933 86.1169 66.2C86.5702 66.3267 86.9369 66.4533 87.2169 66.58C87.4969 66.7 87.7335 66.8867 87.9269 67.14C88.1202 67.3933 88.2169 67.7333 88.2169 68.16C88.2169 68.4867 88.1302 68.7967 87.9569 69.09C87.7835 69.3833 87.5269 69.62 87.1869 69.8C86.8469 69.98 86.4402 70.07 85.9669 70.07ZM94.1595 63.01V63.59H92.2195V70H91.5195V63.59H89.5695V63.01H94.1595ZM98.9048 70.07C98.2582 70.07 97.6715 69.92 97.1448 69.62C96.6182 69.3133 96.2015 68.89 95.8948 68.35C95.5948 67.8033 95.4448 67.1867 95.4448 66.5C95.4448 65.8133 95.5948 65.2 95.8948 64.66C96.2015 64.1133 96.6182 63.69 97.1448 63.39C97.6715 63.0833 98.2582 62.93 98.9048 62.93C99.5582 62.93 100.148 63.0833 100.675 63.39C101.202 63.69 101.615 64.1133 101.915 64.66C102.215 65.2 102.365 65.8133 102.365 66.5C102.365 67.1867 102.215 67.8033 101.915 68.35C101.615 68.89 101.202 69.3133 100.675 69.62C100.148 69.92 99.5582 70.07 98.9048 70.07ZM98.9048 69.46C99.4248 69.46 99.8915 69.34 100.305 69.1C100.718 68.86 101.045 68.5167 101.285 68.07C101.525 67.6167 101.645 67.0933 101.645 66.5C101.645 65.9067 101.525 65.3867 101.285 64.94C101.045 64.4933 100.718 64.15 100.305 63.91C99.8915 63.67 99.4248 63.55 98.9048 63.55C98.3848 63.55 97.9182 63.67 97.5048 63.91C97.0915 64.15 96.7648 64.4933 96.5248 64.94C96.2848 65.3867 96.1648 65.9067 96.1648 66.5C96.1648 67.0933 96.2848 67.6167 96.5248 68.07C96.7648 68.5167 97.0915 68.86 97.5048 69.1C97.9182 69.34 98.3848 69.46 98.9048 69.46ZM107.866 70L106.136 67.08H104.846V70H104.146V63.01H106.246C107.026 63.01 107.616 63.1967 108.016 63.57C108.422 63.9433 108.626 64.4333 108.626 65.04C108.626 65.5467 108.479 65.98 108.186 66.34C107.899 66.6933 107.472 66.9233 106.906 67.03L108.706 70H107.866ZM104.846 66.51H106.256C106.802 66.51 107.212 66.3767 107.486 66.11C107.766 65.8433 107.906 65.4867 107.906 65.04C107.906 64.58 107.772 64.2267 107.506 63.98C107.239 63.7267 106.819 63.6 106.246 63.6H104.846V66.51ZM111.215 63.58V66.19H113.865V66.77H111.215V69.42H114.165V70H110.515V63H114.165V63.58H111.215Z" fill="#2C4259"/>
<defs>
<filter id="filter0_d_1_3" x="22.8" y="27.6" width="131.61" height="40.76" filterUnits="userSpaceOnUse" color-interpolation-filters="sRGB">
<feFlood flood-opacity="0" result="BackgroundImageFix"/>
<feColorMatrix in="SourceAlpha" type="matrix" values="0 0 0 0 0 0 0 0 0 0 0 0 0 0 0 0 0 0 127 0" result="hardAlpha"/>
<feOffset dy="4"/>
<feGaussianBlur stdDeviation="2"/>
<feComposite in2="hardAlpha" operator="out"/>
<feColorMatrix type="matrix" values="0 0 0 0 0 0 0 0 0 0 0 0 0 0 0 0 0 0 0.25 0"/>
<feBlend mode="normal" in2="BackgroundImageFix" result="effect1_dropShadow_1_3"/>
<feBlend mode="normal" in="SourceGraphic" in2="effect1_dropShadow_1_3" result="shape"/>
</filter>
</defs>
</svg>
