<svg width="133" height="54" viewBox="0 0 133 54" fill="none" xmlns="http://www.w3.org/2000/svg">
<g filter="url(#filter0_d_1_3)">
<path d="M14 30.36C12.2667 30.36 10.7067 30.0533 9.32 29.44C7.96 28.8 6.88 27.9467 6.08 26.88C5.28 25.7867 4.85333 24.5733 4.8 23.24H9.52C9.6 24.1733 10.04 24.96 10.84 25.6C11.6667 26.2133 12.6933 26.52 13.92 26.52C15.2 26.52 16.1867 26.28 16.88 25.8C17.6 25.2933 17.96 24.6533 17.96 23.88C17.96 23.0533 17.56 22.44 16.76 22.04C15.9867 21.64 14.7467 21.2 13.04 20.72C11.3867 20.2667 10.04 19.8267 9 19.4C7.96 18.9733 7.05333 18.32 6.28 17.44C5.53333 16.56 5.16 15.4 5.16 13.96C5.16 12.7867 5.50667 11.72 6.2 10.76C6.89333 9.77333 7.88 9 9.16 8.44C10.4667 7.88 11.96 7.6 13.64 7.6C16.1467 7.6 18.16 8.24 19.68 9.52C21.2267 10.7733 22.0533 12.4933 22.16 14.68H17.6C17.52 13.6933 17.12 12.9067 16.4 12.32C15.68 11.7333 14.7067 11.44 13.48 11.44C12.28 11.44 11.36 11.6667 10.72 12.12C10.08 12.5733 9.76 13.1733 9.76 13.92C9.76 14.5067 9.97333 15 10.4 15.4C10.8267 15.8 11.3467 16.12 11.96 16.36C12.5733 16.5733 13.48 16.8533 14.68 17.2C16.28 17.6267 17.5867 18.0667 18.6 18.52C19.64 18.9467 20.5333 19.5867 21.28 20.44C22.0267 21.2933 22.4133 22.4267 22.44 23.84C22.44 25.0933 22.0933 26.2133 21.4 27.2C20.7067 28.1867 19.72 28.96 18.44 29.52C17.1867 30.08 15.7067 30.36 14 30.36ZM27.8472 18.88C27.8472 16.6667 28.3005 14.7067 29.2072 13C30.1405 11.2933 31.3939 9.97333 32.9672 9.04C34.5672 8.08 36.3272 7.6 38.2472 7.6C39.9805 7.6 41.4872 7.94667 42.7672 8.64C44.0739 9.30667 45.1139 10.1467 45.8872 11.16V7.96H50.4872V30H45.8872V26.72C45.1139 27.76 44.0605 28.6267 42.7272 29.32C41.3939 30.0133 39.8739 30.36 38.1672 30.36C36.2739 30.36 34.5405 29.88 32.9672 28.92C31.3939 27.9333 30.1405 26.5733 29.2072 24.84C28.3005 23.08 27.8472 21.0933 27.8472 18.88ZM45.8872 18.96C45.8872 17.44 45.5672 16.12 44.9272 15C44.3139 13.88 43.5005 13.0267 42.4872 12.44C41.4739 11.8533 40.3805 11.56 39.2072 11.56C38.0339 11.56 36.9405 11.8533 35.9272 12.44C34.9139 13 34.0872 13.84 33.4472 14.96C32.8339 16.0533 32.5272 17.36 32.5272 18.88C32.5272 20.4 32.8339 21.7333 33.4472 22.88C34.0872 24.0267 34.9139 24.9067 35.9272 25.52C36.9672 26.1067 38.0605 26.4 39.2072 26.4C40.3805 26.4 41.4739 26.1067 42.4872 25.52C43.5005 24.9333 44.3139 24.08 44.9272 22.96C45.5672 21.8133 45.8872 20.48 45.8872 18.96ZM66.9966 25.92L73.2366 7.96H78.0766L69.6766 30H64.2366L55.8766 7.96H60.7566L66.9966 25.92ZM128.41 7.96L114.89 40.36H110.17L114.65 29.64L105.97 7.96H111.05L117.25 24.76L123.69 7.96H128.41Z" fill="#2C4259"/>
<path d="M92.0434 25.92L98.2834 7.96H103.123L94.7234 30H89.2834L80.9234 7.96H85.8034L92.0434 25.92Z" fill="#C2410C"/>
</g>
<path d="M48.28 43.01L46.3 50H45.52L43.76 44.04L41.96 50L41.2 50.01L39.26 43.01H40.01L41.61 49.14L43.4 43.01H44.18L45.92 49.14L47.53 43.01H48.28ZM50.5508 43.58V46.19H53.2008V46.77H50.5508V49.42H53.5008V50H49.8508V43H53.5008V43.58H50.5508ZM58.6501 46.39C59.0434 46.4633 59.3767 46.6633 59.6501 46.99C59.9234 47.3167 60.0601 47.6967 60.0601 48.13C60.0601 48.4833 59.9701 48.8033 59.7901 49.09C59.6167 49.37 59.3601 49.5933 59.0201 49.76C58.6801 49.92 58.2734 50 57.8001 50H55.3801V43.01H57.7301C58.4367 43.01 58.9734 43.1733 59.3401 43.5C59.7134 43.8267 59.9001 44.25 59.9001 44.77C59.9001 45.2033 59.7834 45.5567 59.5501 45.83C59.3167 46.0967 59.0167 46.2833 58.6501 46.39ZM56.0801 46.1H57.7101C58.1834 46.1 58.5467 45.99 58.8001 45.77C59.0601 45.5433 59.1901 45.2333 59.1901 44.84C59.1901 44.4533 59.0601 44.15 58.8001 43.93C58.5467 43.71 58.1734 43.6 57.6801 43.6H56.0801V46.1ZM57.7501 49.41C58.2567 49.41 58.6501 49.29 58.9301 49.05C59.2167 48.81 59.3601 48.48 59.3601 48.06C59.3601 47.64 59.2101 47.3067 58.9101 47.06C58.6167 46.8067 58.2201 46.68 57.7201 46.68H56.0801V49.41H57.7501ZM63.9669 50.07C63.5069 50.07 63.1002 49.99 62.7469 49.83C62.4002 49.67 62.1269 49.4467 61.9269 49.16C61.7269 48.8733 61.6202 48.5533 61.6069 48.2H62.3469C62.3802 48.54 62.5302 48.84 62.7969 49.1C63.0635 49.3533 63.4535 49.48 63.9669 49.48C64.4402 49.48 64.8135 49.36 65.0869 49.12C65.3669 48.8733 65.5069 48.5633 65.5069 48.19C65.5069 47.89 65.4302 47.65 65.2769 47.47C65.1235 47.2833 64.9335 47.1467 64.7069 47.06C64.4802 46.9667 64.1669 46.8667 63.7669 46.76C63.3002 46.6333 62.9302 46.51 62.6569 46.39C62.3835 46.27 62.1502 46.0833 61.9569 45.83C61.7635 45.5767 61.6669 45.2333 61.6669 44.8C61.6669 44.44 61.7602 44.12 61.9469 43.84C62.1335 43.5533 62.3969 43.33 62.7369 43.17C63.0769 43.01 63.4669 42.93 63.9069 42.93C64.5535 42.93 65.0735 43.09 65.4669 43.41C65.8669 43.7233 66.0969 44.13 66.1569 44.63H65.3969C65.3502 44.3433 65.1935 44.09 64.9269 43.87C64.6602 43.6433 64.3002 43.53 63.8469 43.53C63.4269 43.53 63.0769 43.6433 62.7969 43.87C62.5169 44.09 62.3769 44.3933 62.3769 44.78C62.3769 45.0733 62.4535 45.31 62.6069 45.49C62.7602 45.67 62.9502 45.8067 63.1769 45.9C63.4102 45.9933 63.7235 46.0933 64.1169 46.2C64.5702 46.3267 64.9369 46.4533 65.2169 46.58C65.4969 46.7 65.7335 46.8867 65.9269 47.14C66.1202 47.3933 66.2169 47.7333 66.2169 48.16C66.2169 48.4867 66.1302 48.7967 65.9569 49.09C65.7835 49.3833 65.5269 49.62 65.1869 49.8C64.8469 49.98 64.4402 50.07 63.9669 50.07ZM72.1595 43.01V43.59H70.2195V50H69.5195V43.59H67.5695V43.01H72.1595ZM76.9048 50.07C76.2582 50.07 75.6715 49.92 75.1448 49.62C74.6182 49.3133 74.2015 48.89 73.8948 48.35C73.5948 47.8033 73.4448 47.1867 73.4448 46.5C73.4448 45.8133 73.5948 45.2 73.8948 44.66C74.2015 44.1133 74.6182 43.69 75.1448 43.39C75.6715 43.0833 76.2582 42.93 76.9048 42.93C77.5582 42.93 78.1482 43.0833 78.6748 43.39C79.2015 43.69 79.6148 44.1133 79.9148 44.66C80.2148 45.2 80.3648 45.8133 80.3648 46.5C80.3648 47.1867 80.2148 47.8033 79.9148 48.35C79.6148 48.89 79.2015 49.3133 78.6748 49.62C78.1482 49.92 77.5582 50.07 76.9048 50.07ZM76.9048 49.46C77.4248 49.46 77.8915 49.34 78.3048 49.1C78.7182 48.86 79.0448 48.5167 79.2848 48.07C79.5248 47.6167 79.6448 47.0933 79.6448 46.5C79.6448 45.9067 79.5248 45.3867 79.2848 44.94C79.0448 44.4933 78.7182 44.15 78.3048 43.91C77.8915 43.67 77.4248 43.55 76.9048 43.55C76.3848 43.55 75.9182 43.67 75.5048 43.91C75.0915 44.15 74.7648 44.4933 74.5248 44.94C74.2848 45.3867 74.1648 45.9067 74.1648 46.5C74.1648 47.0933 74.2848 47.6167 74.5248 48.07C74.7648 48.5167 75.0915 48.86 75.5048 49.1C75.9182 49.34 76.3848 49.46 76.9048 49.46ZM85.8657 50L84.1357 47.08H82.8457V50H82.1457V43.01H84.2457C85.0257 43.01 85.6157 43.1967 86.0157 43.57C86.4224 43.9433 86.6257 44.4333 86.6257 45.04C86.6257 45.5467 86.479 45.98 86.1857 46.34C85.899 46.6933 85.4724 46.9233 84.9057 47.03L86.7057 50H85.8657ZM82.8457 46.51H84.2557C84.8024 46.51 85.2124 46.3767 85.4857 46.11C85.7657 45.8433 85.9057 45.4867 85.9057 45.04C85.9057 44.58 85.7724 44.2267 85.5057 43.98C85.239 43.7267 84.819 43.6 84.2457 43.6H82.8457V46.51ZM89.2148 43.58V46.19H91.8648V46.77H89.2148V49.42H92.1648V50H88.5148V43H92.1648V43.58H89.2148Z" fill="#2C4259"/>
<defs>
<filter id="filter0_d_1_3" x="0.799999" y="7.6" width="131.61" height="40.76" filterUnits="userSpaceOnUse" color-interpolation-filters="sRGB">
<feFlood flood-opacity="0" result="BackgroundImageFix"/>
<feColorMatrix in="SourceAlpha" type="matrix" values="0 0 0 0 0 0 0 0 0 0 0 0 0 0 0 0 0 0 127 0" result="hardAlpha"/>
<feOffset dy="4"/>
<feGaussianBlur stdDeviation="2"/>
<feComposite in2="hardAlpha" operator="out"/>
<feColorMatrix type="matrix" values="0 0 0 0 0 0 0 0 0 0 0 0 0 0 0 0 0 0 0.25 0"/>
<feBlend mode="normal" in2="BackgroundImageFix" result="effect1_dropShadow_1_3"/>
<feBlend mode="normal" in="SourceGraphic" in2="effect1_dropShadow_1_3" result="shape"/>
</filter>
</defs>
</svg>
