<svg width="151" height="49" viewBox="0 0 151 49" fill="none" xmlns="http://www.w3.org/2000/svg">
<path d="M14.3672 31.7812C13.9766 31.2031 13.7422 30.5625 13.6641 29.8594C13.5859 29.1406 13.5859 28.3906 13.6641 27.6094C13.7422 26.8281 13.8672 26.0391 14.0391 25.2422C14.2109 24.4453 14.3594 23.6797 14.4844 22.9453C14.6094 22.1953 14.6797 21.5 14.6953 20.8594C14.7109 20.2031 14.6016 19.6406 14.3672 19.1719C14.2422 18.9219 14.0703 18.8047 13.8516 18.8203C13.6484 18.8203 13.4219 18.8516 13.1719 18.9141C12.9375 18.9609 12.6953 18.9766 12.4453 18.9609C12.2109 18.9453 12 18.7969 11.8125 18.5156C11.8281 18.4531 11.8906 18.375 12 18.2812C12.0938 18.1719 12.1641 18.1094 12.2109 18.0938C13.6172 17.8906 14.7891 18.0391 15.7266 18.5391C16.6797 19.0234 17.4375 19.7188 18 20.625C18.5625 21.5156 18.9453 22.5391 19.1484 23.6953C19.3672 24.8516 19.4453 26 19.3828 27.1406C19.3203 28.2812 19.1406 29.3438 18.8438 30.3281C18.5469 31.2969 18.1719 32.0469 17.7188 32.5781C17.2656 33.1094 16.75 33.3438 16.1719 33.2812C15.5938 33.2188 14.9922 32.7188 14.3672 31.7812ZM15.5859 30.9609C15.6016 31.0078 15.6484 31.0703 15.7266 31.1484C15.8047 31.2266 15.8828 31.3125 15.9609 31.4062C16.0547 31.5 16.1406 31.5859 16.2188 31.6641C16.2969 31.7266 16.3516 31.7656 16.3828 31.7812C16.9609 31.4531 17.3906 31.0078 17.6719 30.4453C17.9531 29.8828 18.1172 29.2578 18.1641 28.5703C18.2266 27.8828 18.1953 27.1641 18.0703 26.4141C17.9609 25.6484 17.7969 24.9141 17.5781 24.2109C17.3594 23.5078 17.1016 22.8594 16.8047 22.2656C16.5234 21.6719 16.25 21.1875 15.9844 20.8125C15.9688 21.0156 15.9375 21.3281 15.8906 21.75C15.8438 22.1719 15.7969 22.6484 15.75 23.1797C15.7031 23.7109 15.6484 24.2734 15.5859 24.8672C15.5234 25.4609 15.4609 26.0312 15.3984 26.5781C15.3516 27.1094 15.3047 27.5859 15.2578 28.0078C15.2109 28.4297 15.1797 28.7422 15.1641 28.9453C15.1484 29.1016 15.1484 29.2812 15.1641 29.4844C15.1953 29.6719 15.2344 29.8594 15.2812 30.0469C15.3281 30.2344 15.375 30.4141 15.4219 30.5859C15.4844 30.7422 15.5391 30.8672 15.5859 30.9609ZM22.4812 31.7812C22.45 31.7188 22.4109 31.6172 22.3641 31.4766C22.3172 31.3203 22.2703 31.1562 22.2234 30.9844C22.1922 30.7969 22.1609 30.625 22.1297 30.4688C22.0984 30.3125 22.0828 30.2031 22.0828 30.1406V21.1875C22.0828 21.0469 22.1375 20.9453 22.2469 20.8828C22.3562 20.8203 22.4812 20.7812 22.6219 20.7656C22.7625 20.75 22.8953 20.75 23.0203 20.7656C23.1609 20.7812 23.2547 20.7969 23.3016 20.8125C23.2859 21.0156 23.2781 21.3281 23.2781 21.75C23.2781 22.1719 23.2703 22.6484 23.2547 23.1797C23.2547 23.7109 23.2547 24.2734 23.2547 24.8672C23.2703 25.4609 23.2781 26.0312 23.2781 26.5781V28.0078C23.2781 28.4297 23.2859 28.7422 23.3016 28.9453C23.3328 29.8203 23.45 30.4297 23.6531 30.7734C23.8719 31.1172 24.1297 31.2812 24.4266 31.2656C24.7391 31.2344 25.0594 31.0625 25.3875 30.75C25.7312 30.4219 26.0437 30.0391 26.325 29.6016C26.6219 29.1484 26.8641 28.6797 27.0516 28.1953C27.2547 27.7109 27.3562 27.2812 27.3562 26.9062V20.8125H28.9969C28.9656 21.1719 28.9266 21.6406 28.8797 22.2188C28.8328 22.7969 28.8016 23.4219 28.7859 24.0938C28.7859 24.7656 28.8016 25.4531 28.8328 26.1562C28.8641 26.8438 28.9344 27.5 29.0437 28.125C29.1687 28.7344 29.3406 29.2734 29.5594 29.7422C29.7781 30.1953 30.0594 30.5234 30.4031 30.7266C30.7625 30.9141 31.1922 30.9453 31.6922 30.8203C32.1922 30.6797 32.7859 30.3203 33.4734 29.7422C33.6141 30.1484 33.5594 30.5391 33.3094 30.9141C33.0594 31.2891 32.7312 31.6172 32.325 31.8984C31.9187 32.1797 31.4812 32.3906 31.0125 32.5312C30.5437 32.6562 30.1453 32.6797 29.8172 32.6016C29.7703 32.5859 29.6922 32.5234 29.5828 32.4141C29.4891 32.3047 29.4266 32.2266 29.3953 32.1797C29.3328 32.0703 29.2234 31.8672 29.0672 31.5703C28.9109 31.2578 28.7469 30.9297 28.575 30.5859C28.4031 30.2422 28.2391 29.9141 28.0828 29.6016C27.9422 29.2891 27.8406 29.0703 27.7781 28.9453C27.6844 29.1172 27.5281 29.3828 27.3094 29.7422C27.0906 30.0859 26.825 30.4609 26.5125 30.8672C26.2156 31.2578 25.8875 31.6328 25.5281 31.9922C25.1844 32.3359 24.8328 32.5859 24.4734 32.7422C24.1141 32.8828 23.7625 32.8984 23.4187 32.7891C23.075 32.6641 22.7625 32.3281 22.4812 31.7812ZM35.3062 32.7422C35.0562 33.2578 34.8453 33.5156 34.6734 33.5156C34.5016 33.5312 34.3531 33.3594 34.2281 33C34.1187 32.6562 34.025 32.1641 33.9469 31.5234C33.8844 30.8828 33.8375 30.1719 33.8062 29.3906C33.7906 28.6094 33.7906 27.7891 33.8062 26.9297C33.8219 26.0703 33.8453 25.2422 33.8766 24.4453C33.9234 23.6484 33.9781 22.9219 34.0406 22.2656C34.1031 21.5938 34.1656 21.0703 34.2281 20.6953C34.3062 20.3047 34.3844 20.0938 34.4625 20.0625C34.5406 20.0312 34.6187 20.2422 34.6969 20.6953C35.1969 20.3203 35.7359 19.9688 36.3141 19.6406C36.8922 19.2969 37.4859 19.0156 38.0953 18.7969C38.7203 18.5625 39.3453 18.4141 39.9703 18.3516C40.6109 18.2891 41.2281 18.3438 41.8219 18.5156C41.8844 18.7188 41.8922 18.9531 41.8453 19.2188C41.7984 19.4844 41.65 19.6562 41.4 19.7344C41.15 19.6875 40.8219 19.6641 40.4156 19.6641C40.0094 19.6641 39.5797 19.6953 39.1266 19.7578C38.6734 19.8203 38.2203 19.9219 37.7672 20.0625C37.3141 20.2031 36.9 20.3906 36.525 20.625C36.1656 20.8438 35.8687 21.1172 35.6344 21.4453C35.4156 21.7578 35.3062 22.1328 35.3062 22.5703V32.7422ZM59.1047 44.7891C58.7922 44.5859 58.5344 44.2656 58.3312 43.8281C58.1281 43.4062 57.9641 42.9531 57.8391 42.4688C57.7141 41.9844 57.6203 41.5078 57.5578 41.0391C57.5109 40.5703 57.4797 40.1953 57.4641 39.9141C57.4016 38.5703 57.3781 37.1484 57.3937 35.6484C57.425 34.1641 57.5656 32.6875 57.8156 31.2188C58.0656 29.7344 58.4484 28.3125 58.9641 26.9531C59.4953 25.5781 60.2219 24.3359 61.1437 23.2266C61.6281 22.6484 62.0969 22.125 62.55 21.6562C63.0187 21.1719 63.5031 20.7422 64.0031 20.3672C64.5187 19.9922 65.0656 19.6719 65.6437 19.4062C66.2375 19.125 66.9016 18.9062 67.6359 18.75C68.3078 18.6094 68.8156 18.6797 69.1594 18.9609C69.5187 19.2422 69.7531 19.6641 69.8625 20.2266C69.9719 20.7734 69.9719 21.4297 69.8625 22.1953C69.7531 22.9453 69.5656 23.7266 69.3 24.5391C69.0344 25.3359 68.7062 26.1172 68.3156 26.8828C67.9406 27.6484 67.5344 28.3203 67.0969 28.8984C66.6594 29.4766 66.2062 29.9297 65.7375 30.2578C65.2687 30.5703 64.8156 30.6719 64.3781 30.5625C64.3156 30.4531 64.3859 30.1953 64.5891 29.7891C64.7922 29.3828 65.0578 28.8828 65.3859 28.2891C65.7297 27.6953 66.0969 27.0391 66.4875 26.3203C66.8937 25.5859 67.2531 24.8438 67.5656 24.0938C67.8937 23.3438 68.1437 22.6094 68.3156 21.8906C68.5031 21.1719 68.55 20.5312 68.4562 19.9688C68.4094 19.7188 68.2687 19.5703 68.0344 19.5234C67.8 19.4766 67.5422 19.4844 67.2609 19.5469C66.9953 19.6094 66.7375 19.6875 66.4875 19.7812C66.2375 19.875 66.0812 19.9375 66.0187 19.9688C64.8312 20.4844 63.8 21.2344 62.925 22.2188C62.0656 23.1875 61.3391 24.3047 60.7453 25.5703C60.1516 26.8203 59.6828 28.1562 59.3391 29.5781C59.0109 31 58.7766 32.3984 58.6359 33.7734C58.4953 35.1641 58.4406 36.4844 58.4719 37.7344C58.5031 39 58.6047 40.0859 58.7766 40.9922C58.9484 41.9141 59.1672 42.6094 59.4328 43.0781C59.6984 43.5625 59.9953 43.7266 60.3234 43.5703C60.3547 43.5547 60.4172 43.4922 60.5109 43.3828C60.6203 43.2734 60.6906 43.1953 60.7219 43.1484C60.9406 42.4922 61.1203 41.7734 61.2609 40.9922C61.4016 40.2109 61.5031 39.3984 61.5656 38.5547C61.6437 37.7109 61.6906 36.8594 61.7062 36C61.7219 35.1406 61.7219 34.3047 61.7062 33.4922C61.6906 32.6953 61.6594 31.9375 61.6125 31.2188C61.5812 30.5 61.55 29.8672 61.5187 29.3203C61.4719 29.2109 61.4328 29.0078 61.4016 28.7109C61.3859 28.4141 61.3703 28.0938 61.3547 27.75C61.3547 27.4062 61.3625 27.0703 61.3781 26.7422C61.4094 26.3984 61.4641 26.1406 61.5422 25.9688C61.6203 25.7969 61.7219 25.7344 61.8469 25.7812C61.9719 25.8281 62.1359 26.0547 62.3391 26.4609C62.3703 26.6641 62.4016 27.0156 62.4328 27.5156C62.4797 28.0156 62.5266 28.5547 62.5734 29.1328C62.6203 29.6953 62.6594 30.2266 62.6906 30.7266C62.7219 31.2266 62.7375 31.5781 62.7375 31.7812C62.7531 32 62.7609 32.3047 62.7609 32.6953C62.7766 33.0703 62.7844 33.4766 62.7844 33.9141V36.6094C62.7844 37.0156 62.7766 37.3672 62.7609 37.6641C62.7609 37.9766 62.7531 38.1797 62.7375 38.2734C62.7375 38.4141 62.6984 38.6875 62.6203 39.0938C62.5578 39.5156 62.4875 39.9609 62.4094 40.4297C62.3312 40.9141 62.2453 41.375 62.1516 41.8125C62.0578 42.25 61.9875 42.5625 61.9406 42.75C61.8469 43.0781 61.7141 43.4141 61.5422 43.7578C61.3703 44.1016 61.1594 44.3906 60.9094 44.625C60.675 44.8594 60.4016 45 60.0891 45.0469C59.7922 45.1094 59.4641 45.0234 59.1047 44.7891ZM74.0156 32.7422C73.7656 33.2578 73.5547 33.5156 73.3828 33.5156C73.2109 33.5312 73.0625 33.3594 72.9375 33C72.8281 32.6562 72.7344 32.1641 72.6562 31.5234C72.5938 30.8828 72.5469 30.1719 72.5156 29.3906C72.5 28.6094 72.5 27.7891 72.5156 26.9297C72.5312 26.0703 72.5547 25.2422 72.5859 24.4453C72.6328 23.6484 72.6875 22.9219 72.75 22.2656C72.8125 21.5938 72.875 21.0703 72.9375 20.6953C73.0156 20.3047 73.0938 20.0938 73.1719 20.0625C73.25 20.0312 73.3281 20.2422 73.4062 20.6953C73.9062 20.3203 74.4453 19.9688 75.0234 19.6406C75.6016 19.2969 76.1953 19.0156 76.8047 18.7969C77.4297 18.5625 78.0547 18.4141 78.6797 18.3516C79.3203 18.2891 79.9375 18.3438 80.5312 18.5156C80.5938 18.7188 80.6016 18.9531 80.5547 19.2188C80.5078 19.4844 80.3594 19.6562 80.1094 19.7344C79.8594 19.6875 79.5312 19.6641 79.125 19.6641C78.7188 19.6641 78.2891 19.6953 77.8359 19.7578C77.3828 19.8203 76.9297 19.9219 76.4766 20.0625C76.0234 20.2031 75.6094 20.3906 75.2344 20.625C74.875 20.8438 74.5781 21.1172 74.3438 21.4453C74.125 21.7578 74.0156 22.1328 74.0156 22.5703V32.7422ZM85.1531 31.7812C84.7625 31.2031 84.5281 30.5625 84.45 29.8594C84.3719 29.1406 84.3719 28.3906 84.45 27.6094C84.5281 26.8281 84.6531 26.0391 84.825 25.2422C84.9969 24.4453 85.1453 23.6797 85.2703 22.9453C85.3953 22.1953 85.4656 21.5 85.4812 20.8594C85.4969 20.2031 85.3875 19.6406 85.1531 19.1719C85.0281 18.9219 84.8562 18.8047 84.6375 18.8203C84.4344 18.8203 84.2078 18.8516 83.9578 18.9141C83.7234 18.9609 83.4812 18.9766 83.2312 18.9609C82.9969 18.9453 82.7859 18.7969 82.5984 18.5156C82.6141 18.4531 82.6766 18.375 82.7859 18.2812C82.8797 18.1719 82.95 18.1094 82.9969 18.0938C84.4031 17.8906 85.575 18.0391 86.5125 18.5391C87.4656 19.0234 88.2234 19.7188 88.7859 20.625C89.3484 21.5156 89.7312 22.5391 89.9344 23.6953C90.1531 24.8516 90.2312 26 90.1687 27.1406C90.1062 28.2812 89.9266 29.3438 89.6297 30.3281C89.3328 31.2969 88.9578 32.0469 88.5047 32.5781C88.0516 33.1094 87.5359 33.3438 86.9578 33.2812C86.3797 33.2188 85.7781 32.7188 85.1531 31.7812ZM86.3719 30.9609C86.3875 31.0078 86.4344 31.0703 86.5125 31.1484C86.5906 31.2266 86.6687 31.3125 86.7469 31.4062C86.8406 31.5 86.9266 31.5859 87.0047 31.6641C87.0828 31.7266 87.1375 31.7656 87.1687 31.7812C87.7469 31.4531 88.1766 31.0078 88.4578 30.4453C88.7391 29.8828 88.9031 29.2578 88.95 28.5703C89.0125 27.8828 88.9812 27.1641 88.8562 26.4141C88.7469 25.6484 88.5828 24.9141 88.3641 24.2109C88.1453 23.5078 87.8875 22.8594 87.5906 22.2656C87.3094 21.6719 87.0359 21.1875 86.7703 20.8125C86.7547 21.0156 86.7234 21.3281 86.6766 21.75C86.6297 22.1719 86.5828 22.6484 86.5359 23.1797C86.4891 23.7109 86.4344 24.2734 86.3719 24.8672C86.3094 25.4609 86.2469 26.0312 86.1844 26.5781C86.1375 27.1094 86.0906 27.5859 86.0437 28.0078C85.9969 28.4297 85.9656 28.7422 85.95 28.9453C85.9344 29.1016 85.9344 29.2812 85.95 29.4844C85.9812 29.6719 86.0203 29.8594 86.0672 30.0469C86.1141 30.2344 86.1609 30.4141 86.2078 30.5859C86.2703 30.7422 86.325 30.8672 86.3719 30.9609ZM99.5719 32.6016C99.6031 31.9766 99.6188 31.3203 99.6188 30.6328C99.6344 29.9297 99.6266 29.2266 99.5953 28.5234C99.5641 27.8203 99.5094 27.125 99.4313 26.4375C99.3688 25.7344 99.275 25.0703 99.15 24.4453C98.9313 23.3047 98.65 22.4375 98.3063 21.8438C97.9781 21.2344 97.6266 20.9141 97.2516 20.8828C96.8922 20.8359 96.5484 21.0781 96.2203 21.6094C95.9078 22.125 95.6656 22.9375 95.4938 24.0469C95.4625 24.2188 95.4234 24.4844 95.3766 24.8438C95.3297 25.2031 95.275 25.6094 95.2125 26.0625C95.1656 26.5156 95.1109 27 95.0484 27.5156C95.0016 28.0156 94.9469 28.4922 94.8844 28.9453C94.8375 29.3984 94.7984 29.8047 94.7672 30.1641C94.7359 30.5234 94.7125 30.7891 94.6969 30.9609C94.6031 31.2109 94.4234 31.3594 94.1578 31.4062C93.9078 31.4531 93.6734 31.4375 93.4547 31.3594L92.6578 19.1719C92.6422 18.9688 92.6891 18.7969 92.7984 18.6562C92.9078 18.5 93.0328 18.3984 93.1734 18.3516C93.3141 18.2891 93.4547 18.2891 93.5953 18.3516C93.7359 18.4141 93.8297 18.5547 93.8766 18.7734L94.6969 22.4062C95.1813 21.2344 95.6266 20.4062 96.0328 19.9219C96.4547 19.4219 96.8453 19.1641 97.2047 19.1484C97.5641 19.1328 97.9078 19.3047 98.2359 19.6641C98.5641 20.0234 98.8688 20.4609 99.15 20.9766C99.4469 21.4766 99.7281 22.0156 99.9938 22.5938C100.259 23.1562 100.525 23.6406 100.791 24.0469C101.431 21.8438 102.158 20.2578 102.97 19.2891C103.798 18.3047 104.588 17.8984 105.338 18.0703C106.103 18.2422 106.775 18.9766 107.353 20.2734C107.931 21.5547 108.314 23.3594 108.502 25.6875C108.533 26.0469 108.556 26.5234 108.572 27.1172C108.588 27.6953 108.595 28.2656 108.595 28.8281C108.595 29.3906 108.588 29.8828 108.572 30.3047C108.556 30.7109 108.533 30.9297 108.502 30.9609L108.103 31.3594L107.283 30.5625C107.377 29.75 107.4 28.9062 107.353 28.0312C107.322 27.1406 107.236 26.25 107.095 25.3594C106.97 24.4688 106.814 23.6016 106.627 22.7578C106.439 21.9141 106.252 21.125 106.064 20.3906C105.845 19.7656 105.58 19.4062 105.267 19.3125C104.955 19.2031 104.634 19.2578 104.306 19.4766C103.994 19.6797 103.705 19.9922 103.439 20.4141C103.173 20.8203 102.97 21.2188 102.83 21.6094C102.736 21.8438 102.619 22.1562 102.478 22.5469C102.353 22.9375 102.228 23.3281 102.103 23.7188C101.978 24.1094 101.869 24.4531 101.775 24.75C101.681 25.0469 101.627 25.2188 101.611 25.2656C101.548 25.5469 101.47 26.0312 101.377 26.7188C101.298 27.4062 101.213 28.1406 101.119 28.9219C101.041 29.7031 100.97 30.4453 100.908 31.1484C100.845 31.8359 100.806 32.3203 100.791 32.6016C100.791 32.8359 100.728 32.9688 100.603 33C100.478 33.0312 100.338 33.0156 100.181 32.9531C100.009 32.8906 99.8063 32.7734 99.5719 32.6016ZM111.553 31.7812C111.522 31.7188 111.483 31.6016 111.436 31.4297C111.389 31.2422 111.342 31.0391 111.295 30.8203C111.248 30.6016 111.209 30.3906 111.178 30.1875C111.147 29.9844 111.131 29.8359 111.131 29.7422V18.3516C111.131 18.1953 111.202 18.0859 111.342 18.0234C111.483 17.9609 111.639 17.9297 111.811 17.9297C111.998 17.9141 112.162 17.9141 112.303 17.9297C112.459 17.9453 112.545 17.9531 112.561 17.9531V30.5625C112.561 30.8281 112.647 31.0469 112.819 31.2188C112.991 31.3906 113.194 31.5312 113.428 31.6406C113.662 31.7344 113.905 31.7969 114.155 31.8281C114.405 31.8438 114.616 31.8281 114.787 31.7812C115.006 32.1094 114.998 32.375 114.764 32.5781C114.545 32.7656 114.225 32.875 113.803 32.9062C113.397 32.9219 112.967 32.8438 112.514 32.6719C112.077 32.4844 111.756 32.1875 111.553 31.7812ZM110.733 14.2734C110.733 13.8203 110.912 13.5312 111.272 13.4062C111.631 13.2656 111.998 13.2812 112.373 13.4531V14.6953C112.327 14.7109 112.241 14.7266 112.116 14.7422C112.006 14.7422 111.881 14.7422 111.741 14.7422C111.616 14.7422 111.491 14.7422 111.366 14.7422C111.256 14.7266 111.178 14.7109 111.131 14.6953C111.069 14.6797 110.983 14.6172 110.873 14.5078C110.78 14.3984 110.733 14.3203 110.733 14.2734ZM118.448 32.6016C118.073 32.3203 117.792 31.9297 117.605 31.4297C117.433 30.9141 117.339 30.4375 117.323 30C117.323 29.5469 117.386 29.2031 117.511 28.9688C117.636 28.7188 117.808 28.7109 118.027 28.9453C117.995 29.7891 118.152 30.4297 118.495 30.8672C118.839 31.3047 119.253 31.5781 119.738 31.6875C120.238 31.7969 120.761 31.7656 121.308 31.5938C121.87 31.4219 122.347 31.1562 122.738 30.7969C123.144 30.4219 123.417 29.9688 123.558 29.4375C123.714 28.9062 123.636 28.3359 123.323 27.7266C122.917 27.2734 122.456 26.8359 121.941 26.4141C121.441 25.9766 120.933 25.5469 120.417 25.125C119.902 24.7031 119.402 24.2734 118.917 23.8359C118.433 23.3828 118.003 22.9062 117.628 22.4062C117.597 22.375 117.581 22.3125 117.581 22.2188C117.581 22.1094 117.597 22.0391 117.628 22.0078C117.738 21.8672 117.894 21.6484 118.097 21.3516C118.3 21.0547 118.534 20.7188 118.8 20.3438C119.066 19.9688 119.347 19.5781 119.644 19.1719C119.941 18.75 120.222 18.3516 120.488 17.9766C120.753 17.6016 120.988 17.2656 121.191 16.9688C121.409 16.6719 121.573 16.4531 121.683 16.3125C121.902 16.0312 122.12 15.8672 122.339 15.8203C122.573 15.7734 122.902 15.8047 123.323 15.9141C123.308 15.9766 123.245 16.1172 123.136 16.3359C123.027 16.5391 122.948 16.6719 122.902 16.7344C122.777 16.9219 122.542 17.25 122.198 17.7188C121.855 18.1719 121.488 18.6641 121.097 19.1953C120.706 19.7109 120.339 20.2031 119.995 20.6719C119.652 21.125 119.409 21.4375 119.269 21.6094C119.144 21.7969 119.191 22.0156 119.409 22.2656C119.628 22.5156 119.941 22.7969 120.347 23.1094C120.753 23.4219 121.214 23.7734 121.73 24.1641C122.245 24.5391 122.73 24.9453 123.183 25.3828C123.652 25.8203 124.042 26.2891 124.355 26.7891C124.683 27.2891 124.855 27.8281 124.87 28.4062C124.902 28.9688 124.738 29.5625 124.378 30.1875C124.034 30.8125 123.409 31.4766 122.503 32.1797C122.222 32.3984 121.909 32.5859 121.566 32.7422C121.238 32.8984 120.894 33 120.534 33.0469C120.175 33.1094 119.816 33.1094 119.456 33.0469C119.097 32.9844 118.761 32.8359 118.448 32.6016ZM131.438 32.6016C130.781 32.0859 130.258 31.4844 129.867 30.7969C129.492 30.0938 129.203 29.3438 129 28.5469C128.906 28.625 128.766 28.7109 128.578 28.8047C128.391 28.8984 128.195 28.9766 127.992 29.0391C127.805 29.1016 127.617 29.1484 127.43 29.1797C127.242 29.1953 127.102 29.1719 127.008 29.1094C126.93 29.0469 126.906 28.9453 126.938 28.8047C126.984 28.6484 127.133 28.4219 127.383 28.125C127.414 28.0781 127.508 27.9766 127.664 27.8203C127.836 27.6641 128.016 27.5 128.203 27.3281C128.391 27.1406 128.562 26.9688 128.719 26.8125C128.875 26.6406 128.969 26.5312 129 26.4844C129.172 26.0938 129.273 25.6641 129.305 25.1953C129.352 24.7266 129.375 24.2422 129.375 23.7422C129.391 23.2266 129.422 22.7188 129.469 22.2188C129.516 21.7188 129.633 21.25 129.82 20.8125C129.93 20.5625 130.133 20.2578 130.43 19.8984C130.742 19.5234 131.086 19.1641 131.461 18.8203C131.852 18.4766 132.242 18.1719 132.633 17.9062C133.039 17.625 133.383 17.4531 133.664 17.3906C133.961 17.3281 134.172 17.3984 134.297 17.6016C134.438 17.8047 134.438 18.1953 134.297 18.7734C134.125 19.4609 133.859 20.1328 133.5 20.7891C133.156 21.4297 132.797 22.0703 132.422 22.7109C132.047 23.3359 131.688 23.9609 131.344 24.5859C131.016 25.2109 130.781 25.8438 130.641 26.4844C130.562 26.8281 130.523 27.25 130.523 27.75C130.523 28.2344 130.578 28.7188 130.688 29.2031C130.797 29.6875 130.977 30.1328 131.227 30.5391C131.477 30.9297 131.82 31.2031 132.258 31.3594C132.758 31.5469 133.258 31.5938 133.758 31.5C134.258 31.4062 134.742 31.2266 135.211 30.9609C135.695 30.6953 136.156 30.3672 136.594 29.9766C137.031 29.5703 137.438 29.1562 137.812 28.7344C138.188 28.3125 138.523 27.9062 138.82 27.5156C139.117 27.1094 139.367 26.7656 139.57 26.4844L139.969 26.9062C140.078 27 140.008 27.2656 139.758 27.7031C139.523 28.1406 139.172 28.6406 138.703 29.2031C138.25 29.75 137.711 30.3125 137.086 30.8906C136.461 31.4688 135.812 31.9531 135.141 32.3438C134.484 32.7344 133.828 32.9766 133.172 33.0703C132.531 33.1641 131.953 33.0078 131.438 32.6016ZM130.641 22.4062C130.625 22.4844 130.609 22.625 130.594 22.8281C130.594 23.0156 130.594 23.2188 130.594 23.4375C130.594 23.6562 130.594 23.8594 130.594 24.0469C130.609 24.2344 130.625 24.3672 130.641 24.4453C131.141 23.5859 131.609 22.6719 132.047 21.7031C132.484 20.7344 132.828 19.7578 133.078 18.7734C132.719 18.8984 132.391 19.0938 132.094 19.3594C131.812 19.6094 131.57 19.9062 131.367 20.25C131.164 20.5781 131 20.9297 130.875 21.3047C130.766 21.6797 130.688 22.0469 130.641 22.4062Z" fill="#C2410C"/>
</svg>
