<svg width="100" height="22" viewBox="0 0 100 22" fill="none" xmlns="http://www.w3.org/2000/svg">
<path d="M11.3203 19.7812C11.1016 19.4062 10.8984 18.8906 10.7109 18.2344C10.5391 17.5625 10.3828 16.875 10.2422 16.1719C10.1016 15.4688 9.98438 14.8125 9.89062 14.2031C9.79688 13.6094 9.73438 13.1719 9.70312 12.8906C9.65625 13.1719 9.5625 13.5859 9.42188 14.1328C9.28125 14.6797 9.09375 15.2734 8.85938 15.9141C8.625 16.5391 8.35156 17.1719 8.03906 17.8125C7.72656 18.4375 7.375 18.9766 6.98438 19.4297C6.60938 19.8828 6.20312 20.1953 5.76562 20.3672C5.32812 20.5391 4.875 20.4766 4.40625 20.1797C4.375 20.1641 4.33594 20.1094 4.28906 20.0156C4.24219 19.9062 4.19531 19.7891 4.14844 19.6641C4.11719 19.5234 4.08594 19.3906 4.05469 19.2656C4.02344 19.1406 4.00781 19.0391 4.00781 18.9609V9.1875C3.77344 8.75 3.64062 8.39062 3.60938 8.10938C3.57812 7.8125 3.60938 7.58594 3.70312 7.42969C3.79688 7.27344 3.92188 7.17969 4.07812 7.14844C4.25 7.10156 4.42188 7.10938 4.59375 7.17188C4.76562 7.21875 4.91406 7.3125 5.03906 7.45312C5.16406 7.59375 5.22656 7.77344 5.22656 7.99219V17.7422L5.64844 18.9609C6.41406 18.4297 7.03125 17.7812 7.5 17.0156C7.96875 16.25 8.32812 15.4297 8.57812 14.5547C8.82812 13.6797 9 12.7812 9.09375 11.8594C9.1875 10.9375 9.25 10.0469 9.28125 9.1875C9.35938 9.17188 9.46094 9.15625 9.58594 9.14062C9.72656 9.125 9.85938 9.13281 9.98438 9.16406C10.1094 9.17969 10.2188 9.22656 10.3125 9.30469C10.4219 9.36719 10.4922 9.46875 10.5234 9.60938L12.1406 18.1406L12.9609 19.7812C13.3203 19.5312 13.5938 19.0938 13.7812 18.4688C13.9688 17.8438 14.1016 17.1016 14.1797 16.2422C14.2578 15.3828 14.2969 14.4531 14.2969 13.4531C14.3125 12.4531 14.3125 11.4531 14.2969 10.4531C14.2969 9.45312 14.3047 8.5 14.3203 7.59375C14.3516 6.6875 14.4297 5.90625 14.5547 5.25C14.6797 4.59375 14.8672 4.10156 15.1172 3.77344C15.3828 3.44531 15.7422 3.35938 16.1953 3.51562C16.5078 3.60938 16.6562 3.78906 16.6406 4.05469C16.625 4.30469 16.5391 4.57031 16.3828 4.85156C16.2422 5.11719 16.0781 5.36719 15.8906 5.60156C15.7188 5.82031 15.625 5.9375 15.6094 5.95312V16.9453C15.6094 17.2578 15.5391 17.6172 15.3984 18.0234C15.2734 18.4297 15.1016 18.8281 14.8828 19.2188C14.6641 19.5938 14.4141 19.9375 14.1328 20.25C13.8516 20.5625 13.5469 20.7734 13.2188 20.8828C12.9062 20.9766 12.5859 20.9531 12.2578 20.8125C11.9297 20.6562 11.6172 20.3125 11.3203 19.7812ZM19.6453 20.6016C19.3328 19.9453 19.1609 19.2812 19.1297 18.6094C19.1141 17.9375 19.1531 17.25 19.2469 16.5469C19.2625 16.3281 19.3016 16 19.3641 15.5625C19.4266 15.125 19.4969 14.6406 19.575 14.1094C19.6531 13.5781 19.7391 13.0156 19.8328 12.4219C19.9266 11.8281 20.0125 11.2656 20.0906 10.7344C20.1687 10.2031 20.2391 9.73438 20.3016 9.32812C20.3797 8.90625 20.4344 8.59375 20.4656 8.39062C20.5906 7.73438 20.7234 7.17969 20.8641 6.72656C21.0203 6.25781 21.2234 5.89844 21.4734 5.64844C21.7391 5.39844 22.075 5.26562 22.4812 5.25C22.9031 5.23438 23.4422 5.33594 24.0984 5.55469C24.1766 5.57031 24.2625 5.63281 24.3562 5.74219C24.45 5.83594 24.5047 5.90625 24.5203 5.95312C24.5516 6.15625 24.6062 6.46875 24.6844 6.89062C24.7781 7.3125 24.8797 7.79688 24.9891 8.34375C25.0984 8.875 25.2078 9.4375 25.3172 10.0312C25.4422 10.6094 25.5594 11.1719 25.6687 11.7188C25.7781 12.25 25.8719 12.7266 25.95 13.1484C26.0437 13.5703 26.1141 13.8828 26.1609 14.0859C26.3953 15.1953 26.6844 15.9688 27.0281 16.4062C27.3719 16.8281 27.7391 17.0469 28.1297 17.0625C28.5203 17.0781 28.9187 16.9531 29.325 16.6875C29.7469 16.4062 30.1609 16.1172 30.5672 15.8203C30.9734 15.5078 31.3562 15.2422 31.7156 15.0234C32.075 14.8047 32.3875 14.7656 32.6531 14.9062C32.6531 15.2031 32.5828 15.4922 32.4422 15.7734C32.3016 16.0547 32.1297 16.3203 31.9266 16.5703C31.7391 16.8047 31.5281 17.0234 31.2937 17.2266C31.0594 17.4297 30.8406 17.6016 30.6375 17.7422C29.7625 18.3203 29.0281 18.625 28.4344 18.6562C27.8562 18.6875 27.3641 18.5547 26.9578 18.2578C26.5516 17.9609 26.2234 17.5547 25.9734 17.0391C25.7234 16.5234 25.4969 16 25.2937 15.4688C25.1062 14.9375 24.9187 14.4688 24.7312 14.0625C24.5594 13.6406 24.3484 13.375 24.0984 13.2656C24.0516 13.4688 23.95 13.8203 23.7937 14.3203C23.6531 14.8203 23.4969 15.3516 23.325 15.9141C23.1531 16.4766 22.9891 17.0078 22.8328 17.5078C22.6766 18.0078 22.5672 18.3594 22.5047 18.5625C22.4734 18.6406 22.4031 18.7891 22.2937 19.0078C22.2 19.2266 22.075 19.4688 21.9187 19.7344C21.7625 19.9844 21.5828 20.2344 21.3797 20.4844C21.1922 20.7188 20.9969 20.8984 20.7937 21.0234C20.5906 21.1641 20.3875 21.2109 20.1844 21.1641C19.9812 21.1172 19.8016 20.9297 19.6453 20.6016ZM20.8641 13.6875C20.8328 13.875 20.8094 14.2188 20.7937 14.7188C20.7937 15.2188 20.7937 15.75 20.7937 16.3125C20.7937 16.875 20.7937 17.4062 20.7937 17.9062C20.8094 18.4062 20.8328 18.7578 20.8641 18.9609C21.4109 18.1328 21.9031 17.1719 22.3406 16.0781C22.7781 14.9688 23.1062 13.8281 23.325 12.6562C23.5594 11.4688 23.6531 10.2969 23.6062 9.14062C23.5594 7.96875 23.325 6.90625 22.9031 5.95312C22.6375 6.4375 22.3875 7.04688 22.1531 7.78125C21.9187 8.51562 21.7156 9.26562 21.5437 10.0312C21.3719 10.7812 21.2234 11.4922 21.0984 12.1641C20.9891 12.8203 20.9109 13.3281 20.8641 13.6875ZM33.3609 20.6016C33.3766 20.3984 33.3844 20.0469 33.3844 19.5469V16.3594C33.3844 15.8594 33.3766 15.5078 33.3609 15.3047C33.3453 15.2109 33.3141 15.0078 33.2672 14.6953C33.2359 14.3828 33.1891 14.0156 33.1266 13.5938C33.0797 13.1719 33.025 12.7266 32.9625 12.2578C32.9 11.7891 32.8375 11.3438 32.775 10.9219C32.7125 10.5 32.6578 10.1328 32.6109 9.82031C32.5797 9.50781 32.5562 9.29688 32.5406 9.1875C32.5094 8.96875 32.4937 8.74219 32.4937 8.50781C32.5094 8.27344 32.5562 8.07031 32.6344 7.89844C32.7125 7.72656 32.8375 7.60938 33.0094 7.54688C33.1812 7.46875 33.4312 7.48438 33.7594 7.59375C33.775 7.92188 33.7984 8.3125 33.8297 8.76562C33.8766 9.20312 33.9312 9.66406 33.9937 10.1484C34.0562 10.6328 34.1344 11.1094 34.2281 11.5781C34.3219 12.0469 34.4391 12.4766 34.5797 12.8672C34.7828 12.2891 34.9781 11.7812 35.1656 11.3438C35.3687 10.8906 35.5953 10.4766 35.8453 10.1016C36.0953 9.72656 36.3766 9.375 36.6891 9.04688C37.0016 8.70312 37.3766 8.35156 37.8141 7.99219C38.3609 7.53906 38.8141 7.35938 39.1734 7.45312C39.5484 7.53125 39.8531 7.79688 40.0875 8.25C40.3375 8.6875 40.5406 9.25781 40.6969 9.96094C40.8531 10.6641 40.9937 11.4141 41.1187 12.2109C41.2437 12.9922 41.3687 13.7656 41.4937 14.5312C41.6344 15.2812 41.8062 15.9375 42.0094 16.5C42.2125 17.0469 42.4625 17.4531 42.7594 17.7188C43.0719 17.9688 43.4625 17.9766 43.9312 17.7422C44.0719 18.1641 44.0875 18.4766 43.9781 18.6797C43.8844 18.8672 43.7125 18.9766 43.4625 19.0078C43.2281 19.0234 42.9469 18.9609 42.6187 18.8203C42.2906 18.6641 41.9625 18.4609 41.6344 18.2109C41.3219 17.9453 41.0406 17.6328 40.7906 17.2734C40.5406 16.9141 40.3687 16.5312 40.275 16.125C40.2125 15.8438 40.1578 15.3828 40.1109 14.7422C40.0641 14.1016 39.9937 13.4141 39.9 12.6797C39.8062 11.9453 39.6578 11.2266 39.4547 10.5234C39.2672 9.80469 38.9937 9.23438 38.6344 8.8125L36.9937 10.4062C36.9469 10.4688 36.8297 10.75 36.6422 11.25C36.4703 11.75 36.275 12.3281 36.0562 12.9844C35.8375 13.625 35.6266 14.2812 35.4234 14.9531C35.2203 15.6094 35.0719 16.1406 34.9781 16.5469C34.9469 16.6875 34.9078 16.9531 34.8609 17.3438C34.8141 17.7188 34.7672 18.125 34.7203 18.5625C34.6734 19 34.6344 19.4141 34.6031 19.8047C34.5875 20.1797 34.5797 20.4453 34.5797 20.6016C34.4391 20.8828 34.2359 21.0234 33.9703 21.0234C33.7047 21.0234 33.5016 20.8828 33.3609 20.6016ZM51.5062 19.3594C51.1625 18.7812 50.8969 18.1328 50.7094 17.4141C50.5219 16.6797 50.3891 15.9297 50.3109 15.1641C50.2328 14.3984 50.1937 13.6406 50.1937 12.8906C50.2094 12.1406 50.2328 11.4531 50.2641 10.8281C50.0453 10.7656 49.7953 10.7812 49.5141 10.875C49.2328 10.9688 48.9359 11.0938 48.6234 11.25C48.3109 11.3906 47.9906 11.5469 47.6625 11.7188C47.3344 11.8906 47.0297 12.0156 46.7484 12.0938C46.4672 12.1719 46.2094 12.1875 45.975 12.1406C45.7406 12.0938 45.5531 11.9297 45.4125 11.6484C45.2719 11.3828 45.2797 11.1719 45.4359 11.0156C45.6078 10.8594 45.85 10.7422 46.1625 10.6641C46.4906 10.5703 46.8656 10.5078 47.2875 10.4766C47.7094 10.4297 48.1078 10.375 48.4828 10.3125C48.8578 10.25 49.1781 10.1719 49.4437 10.0781C49.7094 9.96875 49.85 9.8125 49.8656 9.60938L50.6859 0.679688C50.7016 0.539062 50.7719 0.429688 50.8969 0.351562C51.0375 0.273438 51.1781 0.234375 51.3187 0.234375C51.475 0.234375 51.6078 0.273438 51.7172 0.351562C51.8422 0.414062 51.9047 0.523438 51.9047 0.679688V8.39062C52.1234 8.4375 52.3344 8.4375 52.5375 8.39062C52.7406 8.32812 52.9437 8.25781 53.1469 8.17969C53.35 8.10156 53.5453 8.03906 53.7328 7.99219C53.9359 7.94531 54.1469 7.94531 54.3656 7.99219C54.4594 8.16406 54.4437 8.32812 54.3187 8.48438C54.1937 8.625 54.0687 8.73438 53.9437 8.8125L53.5219 9.07031C53.3344 9.17969 53.1312 9.30469 52.9125 9.44531C52.7094 9.57031 52.5062 9.6875 52.3031 9.79688C52.1156 9.90625 51.9828 9.97656 51.9047 10.0078C51.8891 10.2266 51.8734 10.6094 51.8578 11.1562C51.8578 11.6875 51.8578 12.2578 51.8578 12.8672C51.8578 13.4766 51.8578 14.0547 51.8578 14.6016C51.8734 15.1328 51.8891 15.5078 51.9047 15.7266C51.9672 16.4609 52.1078 17.1328 52.3266 17.7422C52.5453 18.3516 52.8422 18.8281 53.2172 19.1719C53.5922 19.5156 54.0375 19.6875 54.5531 19.6875C55.0844 19.6875 55.7016 19.4453 56.4047 18.9609C56.5141 19.3203 56.5062 19.6406 56.3812 19.9219C56.2562 20.2031 56.0531 20.4297 55.7719 20.6016C55.4906 20.7578 55.1547 20.8594 54.7641 20.9062C54.3734 20.9531 53.975 20.9297 53.5687 20.8359C53.1781 20.7422 52.7953 20.5781 52.4203 20.3438C52.0453 20.0938 51.7406 19.7656 51.5062 19.3594ZM76.3359 19.3594C75.9922 18.7812 75.7266 18.1328 75.5391 17.4141C75.3516 16.6797 75.2188 15.9297 75.1406 15.1641C75.0625 14.3984 75.0234 13.6406 75.0234 12.8906C75.0391 12.1406 75.0625 11.4531 75.0938 10.8281C74.875 10.7656 74.625 10.7812 74.3438 10.875C74.0625 10.9688 73.7656 11.0938 73.4531 11.25C73.1406 11.3906 72.8203 11.5469 72.4922 11.7188C72.1641 11.8906 71.8594 12.0156 71.5781 12.0938C71.2969 12.1719 71.0391 12.1875 70.8047 12.1406C70.5703 12.0938 70.3828 11.9297 70.2422 11.6484C70.1016 11.3828 70.1094 11.1719 70.2656 11.0156C70.4375 10.8594 70.6797 10.7422 70.9922 10.6641C71.3203 10.5703 71.6953 10.5078 72.1172 10.4766C72.5391 10.4297 72.9375 10.375 73.3125 10.3125C73.6875 10.25 74.0078 10.1719 74.2734 10.0781C74.5391 9.96875 74.6797 9.8125 74.6953 9.60938L75.5156 0.679688C75.5312 0.539062 75.6016 0.429688 75.7266 0.351562C75.8672 0.273438 76.0078 0.234375 76.1484 0.234375C76.3047 0.234375 76.4375 0.273438 76.5469 0.351562C76.6719 0.414062 76.7344 0.523438 76.7344 0.679688V8.39062C76.9531 8.4375 77.1641 8.4375 77.3672 8.39062C77.5703 8.32812 77.7734 8.25781 77.9766 8.17969C78.1797 8.10156 78.375 8.03906 78.5625 7.99219C78.7656 7.94531 78.9766 7.94531 79.1953 7.99219C79.2891 8.16406 79.2734 8.32812 79.1484 8.48438C79.0234 8.625 78.8984 8.73438 78.7734 8.8125L78.3516 9.07031C78.1641 9.17969 77.9609 9.30469 77.7422 9.44531C77.5391 9.57031 77.3359 9.6875 77.1328 9.79688C76.9453 9.90625 76.8125 9.97656 76.7344 10.0078C76.7188 10.2266 76.7031 10.6094 76.6875 11.1562C76.6875 11.6875 76.6875 12.2578 76.6875 12.8672C76.6875 13.4766 76.6875 14.0547 76.6875 14.6016C76.7031 15.1328 76.7188 15.5078 76.7344 15.7266C76.7969 16.4609 76.9375 17.1328 77.1562 17.7422C77.375 18.3516 77.6719 18.8281 78.0469 19.1719C78.4219 19.5156 78.8672 19.6875 79.3828 19.6875C79.9141 19.6875 80.5312 19.4453 81.2344 18.9609C81.3438 19.3203 81.3359 19.6406 81.2109 19.9219C81.0859 20.2031 80.8828 20.4297 80.6016 20.6016C80.3203 20.7578 79.9844 20.8594 79.5938 20.9062C79.2031 20.9531 78.8047 20.9297 78.3984 20.8359C78.0078 20.7422 77.625 20.5781 77.25 20.3438C76.875 20.0938 76.5703 19.7656 76.3359 19.3594ZM83.6297 19.7812C83.2391 19.2031 83.0047 18.5625 82.9266 17.8594C82.8484 17.1406 82.8484 16.3906 82.9266 15.6094C83.0047 14.8281 83.1297 14.0391 83.3016 13.2422C83.4734 12.4453 83.6219 11.6797 83.7469 10.9453C83.8719 10.1953 83.9422 9.5 83.9578 8.85938C83.9734 8.20312 83.8641 7.64062 83.6297 7.17188C83.5047 6.92188 83.3328 6.80469 83.1141 6.82031C82.9109 6.82031 82.6844 6.85156 82.4344 6.91406C82.2 6.96094 81.9578 6.97656 81.7078 6.96094C81.4734 6.94531 81.2625 6.79688 81.075 6.51562C81.0906 6.45312 81.1531 6.375 81.2625 6.28125C81.3562 6.17188 81.4266 6.10938 81.4734 6.09375C82.8797 5.89062 84.0516 6.03906 84.9891 6.53906C85.9422 7.02344 86.7 7.71875 87.2625 8.625C87.825 9.51562 88.2078 10.5391 88.4109 11.6953C88.6297 12.8516 88.7078 14 88.6453 15.1406C88.5828 16.2812 88.4031 17.3438 88.1062 18.3281C87.8094 19.2969 87.4344 20.0469 86.9812 20.5781C86.5281 21.1094 86.0125 21.3438 85.4344 21.2812C84.8562 21.2188 84.2547 20.7188 83.6297 19.7812ZM84.8484 18.9609C84.8641 19.0078 84.9109 19.0703 84.9891 19.1484C85.0672 19.2266 85.1453 19.3125 85.2234 19.4062C85.3172 19.5 85.4031 19.5859 85.4812 19.6641C85.5594 19.7266 85.6141 19.7656 85.6453 19.7812C86.2234 19.4531 86.6531 19.0078 86.9344 18.4453C87.2156 17.8828 87.3797 17.2578 87.4266 16.5703C87.4891 15.8828 87.4578 15.1641 87.3328 14.4141C87.2234 13.6484 87.0594 12.9141 86.8406 12.2109C86.6219 11.5078 86.3641 10.8594 86.0672 10.2656C85.7859 9.67188 85.5125 9.1875 85.2469 8.8125C85.2312 9.01562 85.2 9.32812 85.1531 9.75C85.1062 10.1719 85.0594 10.6484 85.0125 11.1797C84.9656 11.7109 84.9109 12.2734 84.8484 12.8672C84.7859 13.4609 84.7234 14.0312 84.6609 14.5781C84.6141 15.1094 84.5672 15.5859 84.5203 16.0078C84.4734 16.4297 84.4422 16.7422 84.4266 16.9453C84.4109 17.1016 84.4109 17.2812 84.4266 17.4844C84.4578 17.6719 84.4969 17.8594 84.5437 18.0469C84.5906 18.2344 84.6375 18.4141 84.6844 18.5859C84.7469 18.7422 84.8016 18.8672 84.8484 18.9609Z" fill="#C2410C"/>
</svg>
