<svg width="53" height="34" viewBox="0 0 53 34" fill="none" xmlns="http://www.w3.org/2000/svg">
<path d="M7.67969 20.6016C6.78906 20.2422 6.10938 19.7734 5.64062 19.1953C5.17188 18.6016 4.85156 17.9922 4.67969 17.3672C4.50781 16.7266 4.45312 16.1094 4.51562 15.5156C4.57812 14.9219 4.69531 14.4453 4.86719 14.0859C5.03906 13.7109 5.23438 13.5078 5.45312 13.4766C5.6875 13.4297 5.88281 13.6328 6.03906 14.0859C5.86719 15.0703 5.86719 15.9297 6.03906 16.6641C6.21094 17.3828 6.49219 17.9844 6.88281 18.4688C7.27344 18.9375 7.75 19.2891 8.3125 19.5234C8.875 19.7422 9.45312 19.8594 10.0469 19.875C10.6406 19.875 11.2188 19.7656 11.7812 19.5469C12.3438 19.3281 12.8281 19.0156 13.2344 18.6094C13.6406 18.1875 13.9375 17.6641 14.125 17.0391C14.3125 16.4141 14.3281 15.7031 14.1719 14.9062C14.0938 14.5469 13.8828 14.1094 13.5391 13.5938C13.2109 13.0625 12.8281 12.5 12.3906 11.9062C11.9688 11.3125 11.5312 10.7109 11.0781 10.1016C10.625 9.47656 10.2422 8.88281 9.92969 8.32031C9.63281 7.74219 9.4375 7.21875 9.34375 6.75C9.26562 6.26562 9.38281 5.86719 9.69531 5.55469C9.94531 5.35156 10.3125 5.04688 10.7969 4.64062C11.2969 4.21875 11.8359 3.80469 12.4141 3.39844C12.9922 2.99219 13.5781 2.64062 14.1719 2.34375C14.7812 2.03125 15.3281 1.875 15.8125 1.875C16.1719 1.875 16.3594 1.92969 16.375 2.03906C16.4062 2.14844 16.3281 2.29688 16.1406 2.48438C15.9531 2.65625 15.6797 2.86719 15.3203 3.11719C14.9766 3.36719 14.6016 3.64062 14.1953 3.9375C13.7891 4.21875 13.375 4.52344 12.9531 4.85156C12.5469 5.16406 12.1953 5.48438 11.8984 5.8125C11.6172 6.125 11.4062 6.4375 11.2656 6.75C11.1406 7.04688 11.1562 7.32812 11.3125 7.59375C11.875 8.39062 12.4375 9.19531 13 10.0078C13.5781 10.8203 14.0781 11.625 14.5 12.4219C14.9219 13.2031 15.2344 13.9766 15.4375 14.7422C15.6562 15.4922 15.6875 16.2188 15.5312 16.9219C15.375 17.6094 14.9922 18.2656 14.3828 18.8906C13.7891 19.5156 12.9062 20.0859 11.7344 20.6016C11.0312 20.8984 10.3516 21.0391 9.69531 21.0234C9.05469 21.0078 8.38281 20.8672 7.67969 20.6016ZM20.6453 20.1797C20.7859 18.5234 20.8172 16.9375 20.7391 15.4219C20.6766 13.9062 20.5516 12.3984 20.3641 10.8984C20.1766 9.39844 19.9578 7.875 19.7078 6.32812C19.4578 4.78125 19.2312 3.15625 19.0281 1.45312C19.0281 1.40625 19.0203 1.32812 19.0047 1.21875C19.0047 1.10938 19.0047 0.992188 19.0047 0.867188C19.0047 0.726562 19.0047 0.601562 19.0047 0.492188C19.0203 0.382812 19.0281 0.304688 19.0281 0.257812H19.8484C19.8953 0.539062 19.9656 0.976562 20.0594 1.57031C20.1687 2.16406 20.2859 2.83594 20.4109 3.58594C20.5516 4.33594 20.6922 5.125 20.8328 5.95312C20.9891 6.78125 21.1297 7.57031 21.2547 8.32031C21.3953 9.07031 21.5203 9.74219 21.6297 10.3359C21.7391 10.9297 21.825 11.3672 21.8875 11.6484C21.8875 11.6953 21.9031 11.7812 21.9344 11.9062C21.9812 12.0156 22.0203 12.1328 22.0516 12.2578C22.0984 12.3828 22.1375 12.5078 22.1687 12.6328C22.2156 12.7422 22.2547 12.8203 22.2859 12.8672C22.3328 12.7422 22.4266 12.5312 22.5672 12.2344C22.7234 11.9219 22.8875 11.5938 23.0594 11.25C23.2312 10.8906 23.3953 10.5625 23.5516 10.2656C23.7078 9.95312 23.825 9.73438 23.9031 9.60938C24.1531 9.15625 24.4734 8.74219 24.8641 8.36719C25.2547 7.99219 25.6375 7.75781 26.0125 7.66406C26.3875 7.57031 26.7156 7.66406 26.9969 7.94531C27.2937 8.21094 27.4812 8.76562 27.5594 9.60938C27.575 9.8125 27.5906 10.125 27.6062 10.5469C27.6375 10.9688 27.6687 11.4531 27.7 12C27.7312 12.5312 27.7625 13.0938 27.7937 13.6875C27.825 14.2812 27.8484 14.8438 27.8641 15.375C27.8953 15.9062 27.9187 16.3828 27.9344 16.8047C27.9656 17.2266 27.9812 17.5391 27.9812 17.7422C28.1531 17.9609 28.2781 18.2188 28.3562 18.5156C28.45 18.7969 28.4578 19.0781 28.3797 19.3594C28.0672 19.4688 27.8016 19.4609 27.5828 19.3359C27.3641 19.2109 27.1766 19.0391 27.0203 18.8203C26.8641 18.5859 26.7312 18.3281 26.6219 18.0469C26.5125 17.7656 26.4187 17.5234 26.3406 17.3203C26.3719 16.7266 26.3953 16.0859 26.4109 15.3984C26.4266 14.7109 26.4187 14.0156 26.3875 13.3125C26.3719 12.5938 26.325 11.8828 26.2469 11.1797C26.1844 10.4766 26.0828 9.8125 25.9422 9.1875C25.6609 9.04688 25.3953 9.10156 25.1453 9.35156C24.9109 9.60156 24.6844 9.98438 24.4656 10.5C24.2625 11 24.0672 11.5938 23.8797 12.2812C23.6922 12.9688 23.5125 13.6953 23.3406 14.4609C23.1687 15.2109 22.9969 15.9609 22.825 16.7109C22.6687 17.4609 22.5125 18.1406 22.3562 18.75C22.2156 19.3594 22.0672 19.8672 21.9109 20.2734C21.7703 20.6797 21.6219 20.9219 21.4656 21L20.6453 20.1797ZM32.7672 19.7812C32.3766 19.2031 32.1422 18.5625 32.0641 17.8594C31.9859 17.1406 31.9859 16.3906 32.0641 15.6094C32.1422 14.8281 32.2672 14.0391 32.4391 13.2422C32.6109 12.4453 32.7594 11.6797 32.8844 10.9453C33.0094 10.1953 33.0797 9.5 33.0953 8.85938C33.1109 8.20312 33.0016 7.64062 32.7672 7.17188C32.6422 6.92188 32.4703 6.80469 32.2516 6.82031C32.0484 6.82031 31.8219 6.85156 31.5719 6.91406C31.3375 6.96094 31.0953 6.97656 30.8453 6.96094C30.6109 6.94531 30.4 6.79688 30.2125 6.51562C30.2281 6.45312 30.2906 6.375 30.4 6.28125C30.4937 6.17188 30.5641 6.10938 30.6109 6.09375C32.0172 5.89062 33.1891 6.03906 34.1266 6.53906C35.0797 7.02344 35.8375 7.71875 36.4 8.625C36.9625 9.51562 37.3453 10.5391 37.5484 11.6953C37.7672 12.8516 37.8453 14 37.7828 15.1406C37.7203 16.2812 37.5406 17.3438 37.2437 18.3281C36.9469 19.2969 36.5719 20.0469 36.1187 20.5781C35.6656 21.1094 35.15 21.3438 34.5719 21.2812C33.9937 21.2188 33.3922 20.7188 32.7672 19.7812ZM33.9859 18.9609C34.0016 19.0078 34.0484 19.0703 34.1266 19.1484C34.2047 19.2266 34.2828 19.3125 34.3609 19.4062C34.4547 19.5 34.5406 19.5859 34.6187 19.6641C34.6969 19.7266 34.7516 19.7656 34.7828 19.7812C35.3609 19.4531 35.7906 19.0078 36.0719 18.4453C36.3531 17.8828 36.5172 17.2578 36.5641 16.5703C36.6266 15.8828 36.5953 15.1641 36.4703 14.4141C36.3609 13.6484 36.1969 12.9141 35.9781 12.2109C35.7594 11.5078 35.5016 10.8594 35.2047 10.2656C34.9234 9.67188 34.65 9.1875 34.3844 8.8125C34.3687 9.01562 34.3375 9.32812 34.2906 9.75C34.2437 10.1719 34.1969 10.6484 34.15 11.1797C34.1031 11.7109 34.0484 12.2734 33.9859 12.8672C33.9234 13.4609 33.8609 14.0312 33.7984 14.5781C33.7516 15.1094 33.7047 15.5859 33.6578 16.0078C33.6109 16.4297 33.5797 16.7422 33.5641 16.9453C33.5484 17.1016 33.5484 17.2812 33.5641 17.4844C33.5953 17.6719 33.6344 17.8594 33.6812 18.0469C33.7281 18.2344 33.775 18.4141 33.8219 18.5859C33.8844 18.7422 33.9391 18.8672 33.9859 18.9609ZM41.4906 32.7891C41.1781 32.5859 40.9203 32.2656 40.7172 31.8281C40.5141 31.4062 40.35 30.9531 40.225 30.4688C40.1 29.9844 40.0062 29.5078 39.9437 29.0391C39.8969 28.5703 39.8656 28.1953 39.85 27.9141C39.7875 26.5703 39.7641 25.1484 39.7797 23.6484C39.8109 22.1641 39.9516 20.6875 40.2016 19.2188C40.4516 17.7344 40.8344 16.3125 41.35 14.9531C41.8812 13.5781 42.6078 12.3359 43.5297 11.2266C44.0141 10.6484 44.4828 10.125 44.9359 9.65625C45.4047 9.17188 45.8891 8.74219 46.3891 8.36719C46.9047 7.99219 47.4516 7.67188 48.0297 7.40625C48.6234 7.125 49.2875 6.90625 50.0219 6.75C50.6937 6.60938 51.2016 6.67969 51.5453 6.96094C51.9047 7.24219 52.1391 7.66406 52.2484 8.22656C52.3578 8.77344 52.3578 9.42969 52.2484 10.1953C52.1391 10.9453 51.9516 11.7266 51.6859 12.5391C51.4203 13.3359 51.0922 14.1172 50.7016 14.8828C50.3266 15.6484 49.9203 16.3203 49.4828 16.8984C49.0453 17.4766 48.5922 17.9297 48.1234 18.2578C47.6547 18.5703 47.2016 18.6719 46.7641 18.5625C46.7016 18.4531 46.7719 18.1953 46.975 17.7891C47.1781 17.3828 47.4437 16.8828 47.7719 16.2891C48.1156 15.6953 48.4828 15.0391 48.8734 14.3203C49.2797 13.5859 49.6391 12.8438 49.9516 12.0938C50.2797 11.3438 50.5297 10.6094 50.7016 9.89062C50.8891 9.17188 50.9359 8.53125 50.8422 7.96875C50.7953 7.71875 50.6547 7.57031 50.4203 7.52344C50.1859 7.47656 49.9281 7.48438 49.6469 7.54688C49.3812 7.60938 49.1234 7.6875 48.8734 7.78125C48.6234 7.875 48.4672 7.9375 48.4047 7.96875C47.2172 8.48438 46.1859 9.23438 45.3109 10.2188C44.4516 11.1875 43.725 12.3047 43.1312 13.5703C42.5375 14.8203 42.0687 16.1562 41.725 17.5781C41.3969 19 41.1625 20.3984 41.0219 21.7734C40.8812 23.1641 40.8266 24.4844 40.8578 25.7344C40.8891 27 40.9906 28.0859 41.1625 28.9922C41.3344 29.9141 41.5531 30.6094 41.8187 31.0781C42.0844 31.5625 42.3812 31.7266 42.7094 31.5703C42.7406 31.5547 42.8031 31.4922 42.8969 31.3828C43.0062 31.2734 43.0766 31.1953 43.1078 31.1484C43.3266 30.4922 43.5062 29.7734 43.6469 28.9922C43.7875 28.2109 43.8891 27.3984 43.9516 26.5547C44.0297 25.7109 44.0766 24.8594 44.0922 24C44.1078 23.1406 44.1078 22.3047 44.0922 21.4922C44.0766 20.6953 44.0453 19.9375 43.9984 19.2188C43.9672 18.5 43.9359 17.8672 43.9047 17.3203C43.8578 17.2109 43.8187 17.0078 43.7875 16.7109C43.7719 16.4141 43.7562 16.0938 43.7406 15.75C43.7406 15.4062 43.7484 15.0703 43.7641 14.7422C43.7953 14.3984 43.85 14.1406 43.9281 13.9688C44.0062 13.7969 44.1078 13.7344 44.2328 13.7812C44.3578 13.8281 44.5219 14.0547 44.725 14.4609C44.7562 14.6641 44.7875 15.0156 44.8187 15.5156C44.8656 16.0156 44.9125 16.5547 44.9594 17.1328C45.0062 17.6953 45.0453 18.2266 45.0766 18.7266C45.1078 19.2266 45.1234 19.5781 45.1234 19.7812C45.1391 20 45.1469 20.3047 45.1469 20.6953C45.1625 21.0703 45.1703 21.4766 45.1703 21.9141V24.6094C45.1703 25.0156 45.1625 25.3672 45.1469 25.6641C45.1469 25.9766 45.1391 26.1797 45.1234 26.2734C45.1234 26.4141 45.0844 26.6875 45.0062 27.0938C44.9437 27.5156 44.8734 27.9609 44.7953 28.4297C44.7172 28.9141 44.6312 29.375 44.5375 29.8125C44.4437 30.25 44.3734 30.5625 44.3266 30.75C44.2328 31.0781 44.1 31.4141 43.9281 31.7578C43.7562 32.1016 43.5453 32.3906 43.2953 32.625C43.0609 32.8594 42.7875 33 42.475 33.0469C42.1781 33.1094 41.85 33.0234 41.4906 32.7891Z" fill="white"/>
</svg>
