<svg width="78" height="22" viewBox="0 0 78 22" fill="none" xmlns="http://www.w3.org/2000/svg">
<path d="M7.67969 20.6016C6.78906 20.2422 6.10938 19.7734 5.64062 19.1953C5.17188 18.6016 4.85156 17.9922 4.67969 17.3672C4.50781 16.7266 4.45312 16.1094 4.51562 15.5156C4.57812 14.9219 4.69531 14.4453 4.86719 14.0859C5.03906 13.7109 5.23438 13.5078 5.45312 13.4766C5.6875 13.4297 5.88281 13.6328 6.03906 14.0859C5.86719 15.0703 5.86719 15.9297 6.03906 16.6641C6.21094 17.3828 6.49219 17.9844 6.88281 18.4688C7.27344 18.9375 7.75 19.2891 8.3125 19.5234C8.875 19.7422 9.45312 19.8594 10.0469 19.875C10.6406 19.875 11.2188 19.7656 11.7812 19.5469C12.3438 19.3281 12.8281 19.0156 13.2344 18.6094C13.6406 18.1875 13.9375 17.6641 14.125 17.0391C14.3125 16.4141 14.3281 15.7031 14.1719 14.9062C14.0938 14.5469 13.8828 14.1094 13.5391 13.5938C13.2109 13.0625 12.8281 12.5 12.3906 11.9062C11.9688 11.3125 11.5312 10.7109 11.0781 10.1016C10.625 9.47656 10.2422 8.88281 9.92969 8.32031C9.63281 7.74219 9.4375 7.21875 9.34375 6.75C9.26562 6.26562 9.38281 5.86719 9.69531 5.55469C9.94531 5.35156 10.3125 5.04688 10.7969 4.64062C11.2969 4.21875 11.8359 3.80469 12.4141 3.39844C12.9922 2.99219 13.5781 2.64062 14.1719 2.34375C14.7812 2.03125 15.3281 1.875 15.8125 1.875C16.1719 1.875 16.3594 1.92969 16.375 2.03906C16.4062 2.14844 16.3281 2.29688 16.1406 2.48438C15.9531 2.65625 15.6797 2.86719 15.3203 3.11719C14.9766 3.36719 14.6016 3.64062 14.1953 3.9375C13.7891 4.21875 13.375 4.52344 12.9531 4.85156C12.5469 5.16406 12.1953 5.48438 11.8984 5.8125C11.6172 6.125 11.4062 6.4375 11.2656 6.75C11.1406 7.04688 11.1562 7.32812 11.3125 7.59375C11.875 8.39062 12.4375 9.19531 13 10.0078C13.5781 10.8203 14.0781 11.625 14.5 12.4219C14.9219 13.2031 15.2344 13.9766 15.4375 14.7422C15.6562 15.4922 15.6875 16.2188 15.5312 16.9219C15.375 17.6094 14.9922 18.2656 14.3828 18.8906C13.7891 19.5156 12.9062 20.0859 11.7344 20.6016C11.0312 20.8984 10.3516 21.0391 9.69531 21.0234C9.05469 21.0078 8.38281 20.8672 7.67969 20.6016ZM25.7312 20.6016C25.7625 19.9766 25.7781 19.3203 25.7781 18.6328C25.7937 17.9297 25.7859 17.2266 25.7547 16.5234C25.7234 15.8203 25.6687 15.125 25.5906 14.4375C25.5281 13.7344 25.4344 13.0703 25.3094 12.4453C25.0906 11.3047 24.8094 10.4375 24.4656 9.84375C24.1375 9.23438 23.7859 8.91406 23.4109 8.88281C23.0516 8.83594 22.7078 9.07812 22.3797 9.60938C22.0672 10.125 21.825 10.9375 21.6531 12.0469C21.6219 12.2188 21.5828 12.4844 21.5359 12.8438C21.4891 13.2031 21.4344 13.6094 21.3719 14.0625C21.325 14.5156 21.2703 15 21.2078 15.5156C21.1609 16.0156 21.1062 16.4922 21.0437 16.9453C20.9969 17.3984 20.9578 17.8047 20.9266 18.1641C20.8953 18.5234 20.8719 18.7891 20.8562 18.9609C20.7625 19.2109 20.5828 19.3594 20.3172 19.4062C20.0672 19.4531 19.8328 19.4375 19.6141 19.3594L18.8172 7.17188C18.8016 6.96875 18.8484 6.79688 18.9578 6.65625C19.0672 6.5 19.1922 6.39844 19.3328 6.35156C19.4734 6.28906 19.6141 6.28906 19.7547 6.35156C19.8953 6.41406 19.9891 6.55469 20.0359 6.77344L20.8562 10.4062C21.3406 9.23438 21.7859 8.40625 22.1922 7.92188C22.6141 7.42188 23.0047 7.16406 23.3641 7.14844C23.7234 7.13281 24.0672 7.30469 24.3953 7.66406C24.7234 8.02344 25.0281 8.46094 25.3094 8.97656C25.6062 9.47656 25.8875 10.0156 26.1531 10.5938C26.4187 11.1562 26.6844 11.6406 26.95 12.0469C27.5906 9.84375 28.3172 8.25781 29.1297 7.28906C29.9578 6.30469 30.7469 5.89844 31.4969 6.07031C32.2625 6.24219 32.9344 6.97656 33.5125 8.27344C34.0906 9.55469 34.4734 11.3594 34.6609 13.6875C34.6922 14.0469 34.7156 14.5234 34.7312 15.1172C34.7469 15.6953 34.7547 16.2656 34.7547 16.8281C34.7547 17.3906 34.7469 17.8828 34.7312 18.3047C34.7156 18.7109 34.6922 18.9297 34.6609 18.9609L34.2625 19.3594L33.4422 18.5625C33.5359 17.75 33.5594 16.9062 33.5125 16.0312C33.4812 15.1406 33.3953 14.25 33.2547 13.3594C33.1297 12.4688 32.9734 11.6016 32.7859 10.7578C32.5984 9.91406 32.4109 9.125 32.2234 8.39062C32.0047 7.76562 31.7391 7.40625 31.4266 7.3125C31.1141 7.20312 30.7937 7.25781 30.4656 7.47656C30.1531 7.67969 29.8641 7.99219 29.5984 8.41406C29.3328 8.82031 29.1297 9.21875 28.9891 9.60938C28.8953 9.84375 28.7781 10.1562 28.6375 10.5469C28.5125 10.9375 28.3875 11.3281 28.2625 11.7188C28.1375 12.1094 28.0281 12.4531 27.9344 12.75C27.8406 13.0469 27.7859 13.2188 27.7703 13.2656C27.7078 13.5469 27.6297 14.0312 27.5359 14.7188C27.4578 15.4062 27.3719 16.1406 27.2781 16.9219C27.2 17.7031 27.1297 18.4453 27.0672 19.1484C27.0047 19.8359 26.9656 20.3203 26.95 20.6016C26.95 20.8359 26.8875 20.9688 26.7625 21C26.6375 21.0312 26.4969 21.0156 26.3406 20.9531C26.1687 20.8906 25.9656 20.7734 25.7312 20.6016ZM37.9 20.6016C37.5875 19.9453 37.4156 19.2812 37.3844 18.6094C37.3688 17.9375 37.4078 17.25 37.5016 16.5469C37.5172 16.3281 37.5563 16 37.6188 15.5625C37.6813 15.125 37.7516 14.6406 37.8297 14.1094C37.9078 13.5781 37.9938 13.0156 38.0875 12.4219C38.1813 11.8281 38.2672 11.2656 38.3453 10.7344C38.4234 10.2031 38.4938 9.73438 38.5563 9.32812C38.6344 8.90625 38.6891 8.59375 38.7203 8.39062C38.8453 7.73438 38.9781 7.17969 39.1188 6.72656C39.275 6.25781 39.4781 5.89844 39.7281 5.64844C39.9938 5.39844 40.3297 5.26562 40.7359 5.25C41.1578 5.23438 41.6969 5.33594 42.3531 5.55469C42.4313 5.57031 42.5172 5.63281 42.6109 5.74219C42.7047 5.83594 42.7594 5.90625 42.775 5.95312C42.8063 6.15625 42.8609 6.46875 42.9391 6.89062C43.0328 7.3125 43.1344 7.79688 43.2438 8.34375C43.3531 8.875 43.4625 9.4375 43.5719 10.0312C43.6969 10.6094 43.8141 11.1719 43.9234 11.7188C44.0328 12.25 44.1266 12.7266 44.2047 13.1484C44.2984 13.5703 44.3688 13.8828 44.4156 14.0859C44.65 15.1953 44.9391 15.9688 45.2828 16.4062C45.6266 16.8281 45.9938 17.0469 46.3844 17.0625C46.775 17.0781 47.1734 16.9531 47.5797 16.6875C48.0016 16.4062 48.4156 16.1172 48.8219 15.8203C49.2281 15.5078 49.6109 15.2422 49.9703 15.0234C50.3297 14.8047 50.6422 14.7656 50.9078 14.9062C50.9078 15.2031 50.8375 15.4922 50.6969 15.7734C50.5563 16.0547 50.3844 16.3203 50.1813 16.5703C49.9938 16.8047 49.7828 17.0234 49.5484 17.2266C49.3141 17.4297 49.0953 17.6016 48.8922 17.7422C48.0172 18.3203 47.2828 18.625 46.6891 18.6562C46.1109 18.6875 45.6188 18.5547 45.2125 18.2578C44.8063 17.9609 44.4781 17.5547 44.2281 17.0391C43.9781 16.5234 43.7516 16 43.5484 15.4688C43.3609 14.9375 43.1734 14.4688 42.9859 14.0625C42.8141 13.6406 42.6031 13.375 42.3531 13.2656C42.3063 13.4688 42.2047 13.8203 42.0484 14.3203C41.9078 14.8203 41.7516 15.3516 41.5797 15.9141C41.4078 16.4766 41.2438 17.0078 41.0875 17.5078C40.9313 18.0078 40.8219 18.3594 40.7594 18.5625C40.7281 18.6406 40.6578 18.7891 40.5484 19.0078C40.4547 19.2266 40.3297 19.4688 40.1734 19.7344C40.0172 19.9844 39.8375 20.2344 39.6344 20.4844C39.4469 20.7188 39.2516 20.8984 39.0484 21.0234C38.8453 21.1641 38.6422 21.2109 38.4391 21.1641C38.2359 21.1172 38.0563 20.9297 37.9 20.6016ZM39.1188 13.6875C39.0875 13.875 39.0641 14.2188 39.0484 14.7188C39.0484 15.2188 39.0484 15.75 39.0484 16.3125C39.0484 16.875 39.0484 17.4062 39.0484 17.9062C39.0641 18.4062 39.0875 18.7578 39.1188 18.9609C39.6656 18.1328 40.1578 17.1719 40.5953 16.0781C41.0328 14.9688 41.3609 13.8281 41.5797 12.6562C41.8141 11.4688 41.9078 10.2969 41.8609 9.14062C41.8141 7.96875 41.5797 6.90625 41.1578 5.95312C40.8922 6.4375 40.6422 7.04688 40.4078 7.78125C40.1734 8.51562 39.9703 9.26562 39.7984 10.0312C39.6266 10.7812 39.4781 11.4922 39.3531 12.1641C39.2438 12.8203 39.1656 13.3281 39.1188 13.6875ZM52.2953 20.7422C52.0453 21.2578 51.8344 21.5156 51.6625 21.5156C51.4906 21.5312 51.3422 21.3594 51.2172 21C51.1078 20.6562 51.0141 20.1641 50.9359 19.5234C50.8734 18.8828 50.8266 18.1719 50.7953 17.3906C50.7797 16.6094 50.7797 15.7891 50.7953 14.9297C50.8109 14.0703 50.8344 13.2422 50.8656 12.4453C50.9125 11.6484 50.9672 10.9219 51.0297 10.2656C51.0922 9.59375 51.1547 9.07031 51.2172 8.69531C51.2953 8.30469 51.3734 8.09375 51.4516 8.0625C51.5297 8.03125 51.6078 8.24219 51.6859 8.69531C52.1859 8.32031 52.725 7.96875 53.3031 7.64062C53.8812 7.29688 54.475 7.01562 55.0844 6.79688C55.7094 6.5625 56.3344 6.41406 56.9594 6.35156C57.6 6.28906 58.2172 6.34375 58.8109 6.51562C58.8734 6.71875 58.8812 6.95312 58.8344 7.21875C58.7875 7.48438 58.6391 7.65625 58.3891 7.73438C58.1391 7.6875 57.8109 7.66406 57.4047 7.66406C56.9984 7.66406 56.5687 7.69531 56.1156 7.75781C55.6625 7.82031 55.2094 7.92188 54.7562 8.0625C54.3031 8.20312 53.8891 8.39062 53.5141 8.625C53.1547 8.84375 52.8578 9.11719 52.6234 9.44531C52.4047 9.75781 52.2953 10.1328 52.2953 10.5703V20.7422ZM67.7687 19.3594C67.425 18.7812 67.1594 18.1328 66.9719 17.4141C66.7844 16.6797 66.6516 15.9297 66.5734 15.1641C66.4953 14.3984 66.4562 13.6406 66.4562 12.8906C66.4719 12.1406 66.4953 11.4531 66.5266 10.8281C66.3078 10.7656 66.0578 10.7812 65.7766 10.875C65.4953 10.9688 65.1984 11.0938 64.8859 11.25C64.5734 11.3906 64.2531 11.5469 63.925 11.7188C63.5969 11.8906 63.2922 12.0156 63.0109 12.0938C62.7297 12.1719 62.4719 12.1875 62.2375 12.1406C62.0031 12.0938 61.8156 11.9297 61.675 11.6484C61.5344 11.3828 61.5422 11.1719 61.6984 11.0156C61.8703 10.8594 62.1125 10.7422 62.425 10.6641C62.7531 10.5703 63.1281 10.5078 63.55 10.4766C63.9719 10.4297 64.3703 10.375 64.7453 10.3125C65.1203 10.25 65.4406 10.1719 65.7062 10.0781C65.9719 9.96875 66.1125 9.8125 66.1281 9.60938L66.9484 0.679688C66.9641 0.539062 67.0344 0.429688 67.1594 0.351562C67.3 0.273438 67.4406 0.234375 67.5812 0.234375C67.7375 0.234375 67.8703 0.273438 67.9797 0.351562C68.1047 0.414062 68.1672 0.523438 68.1672 0.679688V8.39062C68.3859 8.4375 68.5969 8.4375 68.8 8.39062C69.0031 8.32812 69.2062 8.25781 69.4094 8.17969C69.6125 8.10156 69.8078 8.03906 69.9953 7.99219C70.1984 7.94531 70.4094 7.94531 70.6281 7.99219C70.7219 8.16406 70.7062 8.32812 70.5812 8.48438C70.4562 8.625 70.3312 8.73438 70.2062 8.8125L69.7844 9.07031C69.5969 9.17969 69.3937 9.30469 69.175 9.44531C68.9719 9.57031 68.7687 9.6875 68.5656 9.79688C68.3781 9.90625 68.2453 9.97656 68.1672 10.0078C68.1516 10.2266 68.1359 10.6094 68.1203 11.1562C68.1203 11.6875 68.1203 12.2578 68.1203 12.8672C68.1203 13.4766 68.1203 14.0547 68.1203 14.6016C68.1359 15.1328 68.1516 15.5078 68.1672 15.7266C68.2297 16.4609 68.3703 17.1328 68.5891 17.7422C68.8078 18.3516 69.1047 18.8281 69.4797 19.1719C69.8547 19.5156 70.3 19.6875 70.8156 19.6875C71.3469 19.6875 71.9641 19.4453 72.6672 18.9609C72.7766 19.3203 72.7687 19.6406 72.6437 19.9219C72.5187 20.2031 72.3156 20.4297 72.0344 20.6016C71.7531 20.7578 71.4172 20.8594 71.0266 20.9062C70.6359 20.9531 70.2375 20.9297 69.8312 20.8359C69.4406 20.7422 69.0578 20.5781 68.6828 20.3438C68.3078 20.0938 68.0031 19.7656 67.7687 19.3594Z" fill="#C2410C"/>
</svg>
