<svg width="38" height="21" viewBox="0 0 38 21" fill="none" xmlns="http://www.w3.org/2000/svg">
<path d="M6.22656 19.1797C5.44531 18.3984 4.95312 17.5312 4.75 16.5781C4.5625 15.625 4.51562 14.6484 4.60938 13.6484C4.71875 12.6328 4.90625 11.625 5.17188 10.625C5.45312 9.625 5.67188 8.6875 5.82812 7.8125C5.89062 7.46875 5.9375 7.05469 5.96875 6.57031C6 6.08594 6.03906 5.57812 6.08594 5.04688C6.13281 4.51562 6.19531 3.99219 6.27344 3.47656C6.35156 2.96094 6.47656 2.5 6.64844 2.09375C6.66406 2.0625 6.71875 2 6.8125 1.90625C6.90625 1.79688 6.98438 1.72656 7.04688 1.69531C8.125 1.05469 9.09375 0.8125 9.95312 0.96875C10.8125 1.10938 11.5547 1.53125 12.1797 2.23438C12.8047 2.92188 13.3047 3.82812 13.6797 4.95312C14.0703 6.0625 14.3281 7.25781 14.4531 8.53906C14.5781 9.80469 14.5703 11.0938 14.4297 12.4062C14.3047 13.7031 14.0391 14.8984 13.6328 15.9922C13.2266 17.0703 12.6719 17.9766 11.9688 18.7109C11.2812 19.4453 10.4453 19.875 9.46094 20C9.08594 20.0469 8.75781 20.0781 8.47656 20.0938C8.19531 20.1094 7.92969 20.0938 7.67969 20.0469C7.42969 20 7.1875 19.9141 6.95312 19.7891C6.73438 19.6484 6.49219 19.4453 6.22656 19.1797ZM7.44531 18.3594C8.22656 18.8906 8.91406 19.125 9.50781 19.0625C10.1172 18.9844 10.6406 18.7031 11.0781 18.2188C11.5156 17.7344 11.875 17.0859 12.1562 16.2734C12.4375 15.4609 12.6484 14.5781 12.7891 13.625C12.9453 12.6562 13.0312 11.6562 13.0469 10.625C13.0625 9.59375 13.0312 8.625 12.9531 7.71875C12.875 6.8125 12.7422 6.00781 12.5547 5.30469C12.3828 4.58594 12.1719 4.0625 11.9219 3.73438C11.3438 2.96875 10.8359 2.46094 10.3984 2.21094C9.97656 1.96094 9.60156 1.89062 9.27344 2C8.96094 2.09375 8.69531 2.34375 8.47656 2.75C8.27344 3.14062 8.10938 3.61719 7.98438 4.17969C7.875 4.72656 7.79688 5.32031 7.75 5.96094C7.71875 6.58594 7.71875 7.1875 7.75 7.76562C7.78125 8.32812 7.84375 8.83594 7.9375 9.28906C8.03125 9.74219 8.14062 10.0547 8.26562 10.2266C8.3125 10.2891 8.42969 10.3906 8.61719 10.5312C8.80469 10.6719 9.01562 10.8359 9.25 11.0234C9.48438 11.1953 9.71094 11.3906 9.92969 11.6094C10.1641 11.8281 10.3438 12.0547 10.4688 12.2891C10.6094 12.5078 10.6719 12.7188 10.6562 12.9219C10.6562 13.125 10.5312 13.3125 10.2812 13.4844C10.0781 13.625 9.85156 13.6641 9.60156 13.6016C9.36719 13.5391 9.125 13.4219 8.875 13.25C8.625 13.0781 8.38281 12.8594 8.14844 12.5938C7.91406 12.3281 7.69531 12.0703 7.49219 11.8203C7.28906 11.5703 7.10938 11.3359 6.95312 11.1172C6.8125 10.8984 6.71094 10.7422 6.64844 10.6484L6.22656 11.4453V16.3203C6.22656 16.4141 6.26562 16.5547 6.34375 16.7422C6.42188 16.9297 6.51562 17.1328 6.625 17.3516C6.75 17.5547 6.88281 17.75 7.02344 17.9375C7.16406 18.125 7.30469 18.2656 7.44531 18.3594ZM17.5984 18.7812C17.5672 18.7188 17.5281 18.6172 17.4812 18.4766C17.4344 18.3203 17.3875 18.1562 17.3406 17.9844C17.3094 17.7969 17.2781 17.625 17.2469 17.4688C17.2156 17.3125 17.2 17.2031 17.2 17.1406V8.1875C17.2 8.04688 17.2547 7.94531 17.3641 7.88281C17.4734 7.82031 17.5984 7.78125 17.7391 7.76562C17.8797 7.75 18.0125 7.75 18.1375 7.76562C18.2781 7.78125 18.3719 7.79688 18.4187 7.8125C18.4031 8.01562 18.3953 8.32812 18.3953 8.75C18.3953 9.17188 18.3875 9.64844 18.3719 10.1797C18.3719 10.7109 18.3719 11.2734 18.3719 11.8672C18.3875 12.4609 18.3953 13.0312 18.3953 13.5781V15.0078C18.3953 15.4297 18.4031 15.7422 18.4187 15.9453C18.45 16.8203 18.5672 17.4297 18.7703 17.7734C18.9891 18.1172 19.2469 18.2812 19.5437 18.2656C19.8562 18.2344 20.1766 18.0625 20.5047 17.75C20.8484 17.4219 21.1609 17.0391 21.4422 16.6016C21.7391 16.1484 21.9812 15.6797 22.1687 15.1953C22.3719 14.7109 22.4734 14.2812 22.4734 13.9062V7.8125H24.1141C24.0828 8.17188 24.0437 8.64062 23.9969 9.21875C23.95 9.79688 23.9187 10.4219 23.9031 11.0938C23.9031 11.7656 23.9187 12.4531 23.95 13.1562C23.9812 13.8438 24.0516 14.5 24.1609 15.125C24.2859 15.7344 24.4578 16.2734 24.6766 16.7422C24.8953 17.1953 25.1766 17.5234 25.5203 17.7266C25.8797 17.9141 26.3094 17.9453 26.8094 17.8203C27.3094 17.6797 27.9031 17.3203 28.5906 16.7422C28.7312 17.1484 28.6766 17.5391 28.4266 17.9141C28.1766 18.2891 27.8484 18.6172 27.4422 18.8984C27.0359 19.1797 26.5984 19.3906 26.1297 19.5312C25.6609 19.6562 25.2625 19.6797 24.9344 19.6016C24.8875 19.5859 24.8094 19.5234 24.7 19.4141C24.6062 19.3047 24.5437 19.2266 24.5125 19.1797C24.45 19.0703 24.3406 18.8672 24.1844 18.5703C24.0281 18.2578 23.8641 17.9297 23.6922 17.5859C23.5203 17.2422 23.3562 16.9141 23.2 16.6016C23.0594 16.2891 22.9578 16.0703 22.8953 15.9453C22.8016 16.1172 22.6453 16.3828 22.4266 16.7422C22.2078 17.0859 21.9422 17.4609 21.6297 17.8672C21.3328 18.2578 21.0047 18.6328 20.6453 18.9922C20.3016 19.3359 19.95 19.5859 19.5906 19.7422C19.2312 19.8828 18.8797 19.8984 18.5359 19.7891C18.1922 19.6641 17.8797 19.3281 17.5984 18.7812ZM30.4234 19.7422C30.1734 20.2578 29.9625 20.5156 29.7906 20.5156C29.6187 20.5312 29.4703 20.3594 29.3453 20C29.2359 19.6562 29.1422 19.1641 29.0641 18.5234C29.0016 17.8828 28.9547 17.1719 28.9234 16.3906C28.9078 15.6094 28.9078 14.7891 28.9234 13.9297C28.9391 13.0703 28.9625 12.2422 28.9937 11.4453C29.0406 10.6484 29.0953 9.92188 29.1578 9.26562C29.2203 8.59375 29.2828 8.07031 29.3453 7.69531C29.4234 7.30469 29.5016 7.09375 29.5797 7.0625C29.6578 7.03125 29.7359 7.24219 29.8141 7.69531C30.3141 7.32031 30.8531 6.96875 31.4312 6.64062C32.0094 6.29688 32.6031 6.01562 33.2125 5.79688C33.8375 5.5625 34.4625 5.41406 35.0875 5.35156C35.7281 5.28906 36.3453 5.34375 36.9391 5.51562C37.0016 5.71875 37.0094 5.95312 36.9625 6.21875C36.9156 6.48438 36.7672 6.65625 36.5172 6.73438C36.2672 6.6875 35.9391 6.66406 35.5328 6.66406C35.1266 6.66406 34.6969 6.69531 34.2437 6.75781C33.7906 6.82031 33.3375 6.92188 32.8844 7.0625C32.4312 7.20312 32.0172 7.39062 31.6422 7.625C31.2828 7.84375 30.9859 8.11719 30.7516 8.44531C30.5328 8.75781 30.4234 9.13281 30.4234 9.57031V19.7422Z" fill="#C2410C"/>
</svg>
