<svg width="264" height="38" viewBox="0 0 264 38" fill="none" xmlns="http://www.w3.org/2000/svg">
<path d="M2.78125 36.8281C2.54688 36.5156 2.39062 36.1484 2.3125 35.7266C2.23438 35.3047 2.21094 34.8672 2.24219 34.4141C2.27344 33.9609 2.34375 33.5156 2.45312 33.0781C2.54688 32.6562 2.65625 32.2812 2.78125 31.9531C2.84375 31.7656 2.94531 31.4766 3.08594 31.0859C3.22656 30.7109 3.39062 30.2812 3.57812 29.7969C3.76562 29.3125 3.96094 28.8047 4.16406 28.2734C4.36719 27.7422 4.5625 27.2344 4.75 26.75C4.95312 26.2812 5.13281 25.8594 5.28906 25.4844L5.64062 24.6406C5.70312 24.0156 5.70312 23.4141 5.64062 22.8359C5.57812 22.2422 5.48438 21.6641 5.35938 21.1016C5.23438 20.5391 5.08594 19.9766 4.91406 19.4141C4.74219 18.8516 4.57031 18.2812 4.39844 17.7031C4.33594 17.5 4.34375 17.3359 4.42188 17.2109C4.51562 17.0703 4.63281 16.9844 4.77344 16.9531C4.91406 16.9062 5.0625 16.9141 5.21875 16.9766C5.39062 17.0234 5.53125 17.1328 5.64062 17.3047C5.89062 17.7266 6.07812 18.1562 6.20312 18.5938C6.32812 19.0156 6.4375 19.4531 6.53125 19.9062C6.625 20.3438 6.71875 20.7891 6.8125 21.2422C6.90625 21.6953 7.04688 22.1484 7.23438 22.6016C7.40625 22.4609 7.67969 22.2344 8.05469 21.9219C8.44531 21.5938 8.875 21.2812 9.34375 20.9844C9.82812 20.6719 10.3125 20.4219 10.7969 20.2344C11.2969 20.0469 11.7422 20.0156 12.1328 20.1406C12.1797 20.1562 12.2578 20.2188 12.3672 20.3281C12.4766 20.4219 12.5391 20.5 12.5547 20.5625C12.4297 20.7656 12.2188 20.9609 11.9219 21.1484C11.625 21.3359 11.2812 21.5312 10.8906 21.7344C10.5156 21.9219 10.125 22.1094 9.71875 22.2969C9.3125 22.4844 8.9375 22.6797 8.59375 22.8828C8.26562 23.0859 7.99219 23.2969 7.77344 23.5156C7.55469 23.75 7.44531 23.9844 7.44531 24.2188V32.7734C7.44531 33.0234 7.375 33.3594 7.23438 33.7812C7.10938 34.2031 6.92969 34.6406 6.69531 35.0938C6.47656 35.5625 6.21094 36 5.89844 36.4062C5.60156 36.8281 5.27344 37.1484 4.91406 37.3672C4.57031 37.5859 4.21875 37.6641 3.85938 37.6016C3.48438 37.5547 3.125 37.2969 2.78125 36.8281ZM4 32.7734C3.98438 32.8984 3.97656 33.1094 3.97656 33.4062C3.96094 33.7188 3.95312 34.0469 3.95312 34.3906C3.95312 34.7344 3.96094 35.0625 3.97656 35.375C3.97656 35.6875 3.98438 35.8984 4 36.0078C4.03125 36.0234 4.09375 36.0312 4.1875 36.0312C4.29688 36.0312 4.36719 36.0234 4.39844 36.0078C4.64844 35.8828 4.86719 35.6094 5.05469 35.1875C5.25781 34.7656 5.42969 34.3203 5.57031 33.8516C5.71094 33.3984 5.82031 32.9766 5.89844 32.5859C5.99219 32.2109 6.03906 32 6.03906 31.9531C6.05469 31.7656 6.0625 31.4375 6.0625 30.9688C6.07812 30.5156 6.08594 30.0234 6.08594 29.4922C6.08594 28.9766 6.07812 28.4844 6.0625 28.0156C6.0625 27.5625 6.05469 27.2422 6.03906 27.0547C5.53906 27.9453 5.09375 28.8594 4.70312 29.7969C4.3125 30.75 4.07812 31.7422 4 32.7734ZM5.64062 10.7891C5.53125 10.5859 5.53125 10.4141 5.64062 10.2734C5.76562 10.1172 5.92969 10.0156 6.13281 9.96875C6.33594 9.92188 6.54688 9.92969 6.76562 9.99219C6.98438 10.0547 7.14062 10.1797 7.23438 10.3672C7.32812 10.5703 7.3125 10.7422 7.1875 10.8828C7.07812 11.0078 6.92188 11.0938 6.71875 11.1406C6.51562 11.1875 6.30469 11.1875 6.08594 11.1406C5.88281 11.0938 5.73438 10.9766 5.64062 10.7891ZM13.7547 21.7812C13.3641 21.2031 13.1297 20.5625 13.0516 19.8594C12.9734 19.1406 12.9734 18.3906 13.0516 17.6094C13.1297 16.8281 13.2547 16.0391 13.4266 15.2422C13.5984 14.4453 13.7469 13.6797 13.8719 12.9453C13.9969 12.1953 14.0672 11.5 14.0828 10.8594C14.0984 10.2031 13.9891 9.64062 13.7547 9.17188C13.6297 8.92188 13.4578 8.80469 13.2391 8.82031C13.0359 8.82031 12.8094 8.85156 12.5594 8.91406C12.325 8.96094 12.0828 8.97656 11.8328 8.96094C11.5984 8.94531 11.3875 8.79688 11.2 8.51562C11.2156 8.45312 11.2781 8.375 11.3875 8.28125C11.4812 8.17188 11.5516 8.10938 11.5984 8.09375C13.0047 7.89062 14.1766 8.03906 15.1141 8.53906C16.0672 9.02344 16.825 9.71875 17.3875 10.625C17.95 11.5156 18.3328 12.5391 18.5359 13.6953C18.7547 14.8516 18.8328 16 18.7703 17.1406C18.7078 18.2812 18.5281 19.3438 18.2312 20.3281C17.9344 21.2969 17.5594 22.0469 17.1062 22.5781C16.6531 23.1094 16.1375 23.3438 15.5594 23.2812C14.9812 23.2188 14.3797 22.7188 13.7547 21.7812ZM14.9734 20.9609C14.9891 21.0078 15.0359 21.0703 15.1141 21.1484C15.1922 21.2266 15.2703 21.3125 15.3484 21.4062C15.4422 21.5 15.5281 21.5859 15.6062 21.6641C15.6844 21.7266 15.7391 21.7656 15.7703 21.7812C16.3484 21.4531 16.7781 21.0078 17.0594 20.4453C17.3406 19.8828 17.5047 19.2578 17.5516 18.5703C17.6141 17.8828 17.5828 17.1641 17.4578 16.4141C17.3484 15.6484 17.1844 14.9141 16.9656 14.2109C16.7469 13.5078 16.4891 12.8594 16.1922 12.2656C15.9109 11.6719 15.6375 11.1875 15.3719 10.8125C15.3562 11.0156 15.325 11.3281 15.2781 11.75C15.2312 12.1719 15.1844 12.6484 15.1375 13.1797C15.0906 13.7109 15.0359 14.2734 14.9734 14.8672C14.9109 15.4609 14.8484 16.0312 14.7859 16.5781C14.7391 17.1094 14.6922 17.5859 14.6453 18.0078C14.5984 18.4297 14.5672 18.7422 14.5516 18.9453C14.5359 19.1016 14.5359 19.2812 14.5516 19.4844C14.5828 19.6719 14.6219 19.8594 14.6687 20.0469C14.7156 20.2344 14.7625 20.4141 14.8094 20.5859C14.8719 20.7422 14.9266 20.8672 14.9734 20.9609ZM21.4703 21.7812C21.4391 21.7188 21.4 21.6016 21.3531 21.4297C21.3062 21.2422 21.2594 21.0391 21.2125 20.8203C21.1656 20.6016 21.1266 20.3906 21.0953 20.1875C21.0641 19.9844 21.0484 19.8359 21.0484 19.7422V8.35156C21.0484 8.19531 21.1187 8.08594 21.2594 8.02344C21.4 7.96094 21.5562 7.92969 21.7281 7.92969C21.9156 7.91406 22.0797 7.91406 22.2203 7.92969C22.3766 7.94531 22.4625 7.95312 22.4781 7.95312V20.5625C22.4781 20.8281 22.5641 21.0469 22.7359 21.2188C22.9078 21.3906 23.1109 21.5312 23.3453 21.6406C23.5797 21.7344 23.8219 21.7969 24.0719 21.8281C24.3219 21.8438 24.5328 21.8281 24.7047 21.7812C24.9234 22.1094 24.9156 22.375 24.6812 22.5781C24.4625 22.7656 24.1422 22.875 23.7203 22.9062C23.3141 22.9219 22.8844 22.8438 22.4312 22.6719C21.9937 22.4844 21.6734 22.1875 21.4703 21.7812ZM20.65 4.27344C20.65 3.82031 20.8297 3.53125 21.1891 3.40625C21.5484 3.26562 21.9156 3.28125 22.2906 3.45312V4.69531C22.2437 4.71094 22.1578 4.72656 22.0328 4.74219C21.9234 4.74219 21.7984 4.74219 21.6578 4.74219C21.5328 4.74219 21.4078 4.74219 21.2828 4.74219C21.1734 4.72656 21.0953 4.71094 21.0484 4.69531C20.9859 4.67969 20.9 4.61719 20.7906 4.50781C20.6969 4.39844 20.65 4.32031 20.65 4.27344ZM28.1781 22.6016C28.1938 22.3984 28.2016 22.0469 28.2016 21.5469V18.3594C28.2016 17.8594 28.1938 17.5078 28.1781 17.3047C28.1625 17.2109 28.1313 17.0078 28.0844 16.6953C28.0531 16.3828 28.0063 16.0156 27.9438 15.5938C27.8969 15.1719 27.8422 14.7266 27.7797 14.2578C27.7172 13.7891 27.6547 13.3438 27.5922 12.9219C27.5297 12.5 27.475 12.1328 27.4281 11.8203C27.3969 11.5078 27.3734 11.2969 27.3578 11.1875C27.3266 10.9688 27.3109 10.7422 27.3109 10.5078C27.3266 10.2734 27.3734 10.0703 27.4516 9.89844C27.5297 9.72656 27.6547 9.60938 27.8266 9.54688C27.9984 9.46875 28.2484 9.48438 28.5766 9.59375C28.5922 9.92188 28.6156 10.3125 28.6469 10.7656C28.6938 11.2031 28.7484 11.6641 28.8109 12.1484C28.8734 12.6328 28.9516 13.1094 29.0453 13.5781C29.1391 14.0469 29.2563 14.4766 29.3969 14.8672C29.6 14.2891 29.7953 13.7812 29.9828 13.3438C30.1859 12.8906 30.4125 12.4766 30.6625 12.1016C30.9125 11.7266 31.1938 11.375 31.5063 11.0469C31.8188 10.7031 32.1938 10.3516 32.6313 9.99219C33.1781 9.53906 33.6313 9.35938 33.9906 9.45312C34.3656 9.53125 34.6703 9.79688 34.9047 10.25C35.1547 10.6875 35.3578 11.2578 35.5141 11.9609C35.6703 12.6641 35.8109 13.4141 35.9359 14.2109C36.0609 14.9922 36.1859 15.7656 36.3109 16.5312C36.4516 17.2812 36.6234 17.9375 36.8266 18.5C37.0297 19.0469 37.2797 19.4531 37.5766 19.7188C37.8891 19.9688 38.2797 19.9766 38.7484 19.7422C38.8891 20.1641 38.9047 20.4766 38.7953 20.6797C38.7016 20.8672 38.5297 20.9766 38.2797 21.0078C38.0453 21.0234 37.7641 20.9609 37.4359 20.8203C37.1078 20.6641 36.7797 20.4609 36.4516 20.2109C36.1391 19.9453 35.8578 19.6328 35.6078 19.2734C35.3578 18.9141 35.1859 18.5312 35.0922 18.125C35.0297 17.8438 34.975 17.3828 34.9281 16.7422C34.8813 16.1016 34.8109 15.4141 34.7172 14.6797C34.6234 13.9453 34.475 13.2266 34.2719 12.5234C34.0844 11.8047 33.8109 11.2344 33.4516 10.8125L31.8109 12.4062C31.7641 12.4688 31.6469 12.75 31.4594 13.25C31.2875 13.75 31.0922 14.3281 30.8734 14.9844C30.6547 15.625 30.4438 16.2812 30.2406 16.9531C30.0375 17.6094 29.8891 18.1406 29.7953 18.5469C29.7641 18.6875 29.725 18.9531 29.6781 19.3438C29.6313 19.7188 29.5844 20.125 29.5375 20.5625C29.4906 21 29.4516 21.4141 29.4203 21.8047C29.4047 22.1797 29.3969 22.4453 29.3969 22.6016C29.2563 22.8828 29.0531 23.0234 28.7875 23.0234C28.5219 23.0234 28.3188 22.8828 28.1781 22.6016ZM55.1875 21.7812C54.7969 21.2031 54.5625 20.5625 54.4844 19.8594C54.4062 19.1406 54.4062 18.3906 54.4844 17.6094C54.5625 16.8281 54.6875 16.0391 54.8594 15.2422C55.0312 14.4453 55.1797 13.6797 55.3047 12.9453C55.4297 12.1953 55.5 11.5 55.5156 10.8594C55.5312 10.2031 55.4219 9.64062 55.1875 9.17188C55.0625 8.92188 54.8906 8.80469 54.6719 8.82031C54.4688 8.82031 54.2422 8.85156 53.9922 8.91406C53.7578 8.96094 53.5156 8.97656 53.2656 8.96094C53.0312 8.94531 52.8203 8.79688 52.6328 8.51562C52.6484 8.45312 52.7109 8.375 52.8203 8.28125C52.9141 8.17188 52.9844 8.10938 53.0312 8.09375C54.4375 7.89062 55.6094 8.03906 56.5469 8.53906C57.5 9.02344 58.2578 9.71875 58.8203 10.625C59.3828 11.5156 59.7656 12.5391 59.9688 13.6953C60.1875 14.8516 60.2656 16 60.2031 17.1406C60.1406 18.2812 59.9609 19.3438 59.6641 20.3281C59.3672 21.2969 58.9922 22.0469 58.5391 22.5781C58.0859 23.1094 57.5703 23.3438 56.9922 23.2812C56.4141 23.2188 55.8125 22.7188 55.1875 21.7812ZM56.4062 20.9609C56.4219 21.0078 56.4688 21.0703 56.5469 21.1484C56.625 21.2266 56.7031 21.3125 56.7812 21.4062C56.875 21.5 56.9609 21.5859 57.0391 21.6641C57.1172 21.7266 57.1719 21.7656 57.2031 21.7812C57.7812 21.4531 58.2109 21.0078 58.4922 20.4453C58.7734 19.8828 58.9375 19.2578 58.9844 18.5703C59.0469 17.8828 59.0156 17.1641 58.8906 16.4141C58.7812 15.6484 58.6172 14.9141 58.3984 14.2109C58.1797 13.5078 57.9219 12.8594 57.625 12.2656C57.3438 11.6719 57.0703 11.1875 56.8047 10.8125C56.7891 11.0156 56.7578 11.3281 56.7109 11.75C56.6641 12.1719 56.6172 12.6484 56.5703 13.1797C56.5234 13.7109 56.4688 14.2734 56.4062 14.8672C56.3438 15.4609 56.2812 16.0312 56.2188 16.5781C56.1719 17.1094 56.125 17.5859 56.0781 18.0078C56.0312 18.4297 56 18.7422 55.9844 18.9453C55.9688 19.1016 55.9688 19.2812 55.9844 19.4844C56.0156 19.6719 56.0547 19.8594 56.1016 20.0469C56.1484 20.2344 56.1953 20.4141 56.2422 20.5859C56.3047 20.7422 56.3594 20.8672 56.4062 20.9609ZM63.3016 21.7812C63.2703 21.7188 63.2313 21.6172 63.1844 21.4766C63.1375 21.3203 63.0906 21.1562 63.0438 20.9844C63.0125 20.7969 62.9813 20.625 62.95 20.4688C62.9188 20.3125 62.9031 20.2031 62.9031 20.1406V11.1875C62.9031 11.0469 62.9578 10.9453 63.0672 10.8828C63.1766 10.8203 63.3016 10.7812 63.4422 10.7656C63.5828 10.75 63.7156 10.75 63.8406 10.7656C63.9813 10.7812 64.075 10.7969 64.1219 10.8125C64.1063 11.0156 64.0984 11.3281 64.0984 11.75C64.0984 12.1719 64.0906 12.6484 64.075 13.1797C64.075 13.7109 64.075 14.2734 64.075 14.8672C64.0906 15.4609 64.0984 16.0312 64.0984 16.5781V18.0078C64.0984 18.4297 64.1063 18.7422 64.1219 18.9453C64.1531 19.8203 64.2703 20.4297 64.4734 20.7734C64.6922 21.1172 64.95 21.2812 65.2469 21.2656C65.5594 21.2344 65.8797 21.0625 66.2078 20.75C66.5516 20.4219 66.8641 20.0391 67.1453 19.6016C67.4422 19.1484 67.6844 18.6797 67.8719 18.1953C68.075 17.7109 68.1766 17.2812 68.1766 16.9062V10.8125H69.8172C69.7859 11.1719 69.7469 11.6406 69.7 12.2188C69.6531 12.7969 69.6219 13.4219 69.6063 14.0938C69.6063 14.7656 69.6219 15.4531 69.6531 16.1562C69.6844 16.8438 69.7547 17.5 69.8641 18.125C69.9891 18.7344 70.1609 19.2734 70.3797 19.7422C70.5984 20.1953 70.8797 20.5234 71.2234 20.7266C71.5828 20.9141 72.0125 20.9453 72.5125 20.8203C73.0125 20.6797 73.6063 20.3203 74.2938 19.7422C74.4344 20.1484 74.3797 20.5391 74.1297 20.9141C73.8797 21.2891 73.5516 21.6172 73.1453 21.8984C72.7391 22.1797 72.3016 22.3906 71.8328 22.5312C71.3641 22.6562 70.9656 22.6797 70.6375 22.6016C70.5906 22.5859 70.5125 22.5234 70.4031 22.4141C70.3094 22.3047 70.2469 22.2266 70.2156 22.1797C70.1531 22.0703 70.0438 21.8672 69.8875 21.5703C69.7313 21.2578 69.5672 20.9297 69.3953 20.5859C69.2234 20.2422 69.0594 19.9141 68.9031 19.6016C68.7625 19.2891 68.6609 19.0703 68.5984 18.9453C68.5047 19.1172 68.3484 19.3828 68.1297 19.7422C67.9109 20.0859 67.6453 20.4609 67.3328 20.8672C67.0359 21.2578 66.7078 21.6328 66.3484 21.9922C66.0047 22.3359 65.6531 22.5859 65.2938 22.7422C64.9344 22.8828 64.5828 22.8984 64.2391 22.7891C63.8953 22.6641 63.5828 22.3281 63.3016 21.7812ZM76.1266 22.7422C75.8766 23.2578 75.6656 23.5156 75.4938 23.5156C75.3219 23.5312 75.1734 23.3594 75.0484 23C74.9391 22.6562 74.8453 22.1641 74.7672 21.5234C74.7047 20.8828 74.6578 20.1719 74.6266 19.3906C74.6109 18.6094 74.6109 17.7891 74.6266 16.9297C74.6422 16.0703 74.6656 15.2422 74.6969 14.4453C74.7438 13.6484 74.7984 12.9219 74.8609 12.2656C74.9234 11.5938 74.9859 11.0703 75.0484 10.6953C75.1266 10.3047 75.2047 10.0938 75.2828 10.0625C75.3609 10.0312 75.4391 10.2422 75.5172 10.6953C76.0172 10.3203 76.5563 9.96875 77.1344 9.64062C77.7125 9.29688 78.3063 9.01562 78.9156 8.79688C79.5406 8.5625 80.1656 8.41406 80.7906 8.35156C81.4313 8.28906 82.0484 8.34375 82.6422 8.51562C82.7047 8.71875 82.7125 8.95312 82.6656 9.21875C82.6188 9.48438 82.4703 9.65625 82.2203 9.73438C81.9703 9.6875 81.6422 9.66406 81.2359 9.66406C80.8297 9.66406 80.4 9.69531 79.9469 9.75781C79.4938 9.82031 79.0406 9.92188 78.5875 10.0625C78.1344 10.2031 77.7203 10.3906 77.3453 10.625C76.9859 10.8438 76.6891 11.1172 76.4547 11.4453C76.2359 11.7578 76.1266 12.1328 76.1266 12.5703V22.7422ZM103.558 22.6016C103.527 22.5391 103.488 22.4531 103.441 22.3438C103.409 22.2188 103.37 22.0938 103.323 21.9688C103.292 21.8281 103.253 21.7031 103.206 21.5938C103.175 21.4844 103.159 21.4062 103.159 21.3594C103.144 21.1875 103.12 20.9219 103.089 20.5625C103.073 20.2031 103.05 19.7969 103.019 19.3438C102.988 18.8906 102.956 18.4141 102.925 17.9141C102.909 17.3984 102.886 16.9141 102.855 16.4609C102.823 16.0078 102.8 15.6016 102.784 15.2422C102.769 14.8828 102.761 14.6172 102.761 14.4453C102.73 14.4297 102.659 14.4219 102.55 14.4219C102.441 14.4219 102.37 14.4297 102.339 14.4453C102.214 14.4766 101.995 14.5312 101.683 14.6094C101.386 14.6875 101.066 14.7734 100.722 14.8672L99.7375 15.1016C99.425 15.1797 99.2141 15.2344 99.1047 15.2656L98.0734 14.2344L102.761 12.8281L103.558 3.875C103.62 3.29688 103.8 2.80469 104.097 2.39844C104.394 1.99219 104.745 1.67188 105.152 1.4375C105.558 1.20312 105.972 1.0625 106.394 1.01562C106.831 0.96875 107.206 1.01562 107.519 1.15625C107.831 1.28125 108.05 1.50781 108.175 1.83594C108.3 2.14844 108.261 2.55469 108.058 3.05469C107.823 3.22656 107.636 3.29688 107.495 3.26562C107.37 3.23438 107.269 3.16406 107.191 3.05469C107.128 2.92969 107.073 2.78906 107.027 2.63281C106.98 2.47656 106.917 2.35156 106.839 2.25781C106.542 1.96094 106.277 1.86719 106.042 1.97656C105.823 2.07031 105.628 2.3125 105.456 2.70312C105.284 3.07812 105.136 3.55469 105.011 4.13281C104.886 4.71094 104.784 5.33594 104.706 6.00781C104.628 6.66406 104.566 7.33594 104.519 8.02344C104.472 8.69531 104.433 9.3125 104.402 9.875C104.386 10.4375 104.378 10.9141 104.378 11.3047V12.0078C104.691 12.1016 105.034 12.0938 105.409 11.9844C105.8 11.875 106.191 11.7188 106.581 11.5156C106.988 11.3125 107.386 11.1016 107.777 10.8828C108.167 10.6484 108.534 10.4688 108.878 10.3438C109.222 10.2188 109.527 10.1797 109.792 10.2266C110.073 10.2734 110.3 10.4688 110.472 10.8125L109.698 11.6094L104.8 13.6484L104.378 14.0469C104.363 14.0781 104.347 14.2969 104.331 14.7031C104.331 15.1094 104.331 15.5938 104.331 16.1562C104.331 16.7188 104.331 17.2969 104.331 17.8906C104.347 18.4688 104.363 18.9453 104.378 19.3203C104.394 19.4922 104.448 19.75 104.542 20.0938C104.652 20.4375 104.738 20.8047 104.8 21.1953C104.878 21.5859 104.894 21.9531 104.847 22.2969C104.816 22.625 104.659 22.8594 104.378 23C104.206 23.0781 104.042 23.0625 103.886 22.9531C103.745 22.8438 103.636 22.7266 103.558 22.6016ZM114.227 22.7422C113.977 23.2578 113.766 23.5156 113.594 23.5156C113.422 23.5312 113.273 23.3594 113.148 23C113.039 22.6562 112.945 22.1641 112.867 21.5234C112.805 20.8828 112.758 20.1719 112.727 19.3906C112.711 18.6094 112.711 17.7891 112.727 16.9297C112.742 16.0703 112.766 15.2422 112.797 14.4453C112.844 13.6484 112.898 12.9219 112.961 12.2656C113.023 11.5938 113.086 11.0703 113.148 10.6953C113.227 10.3047 113.305 10.0938 113.383 10.0625C113.461 10.0312 113.539 10.2422 113.617 10.6953C114.117 10.3203 114.656 9.96875 115.234 9.64062C115.812 9.29688 116.406 9.01562 117.016 8.79688C117.641 8.5625 118.266 8.41406 118.891 8.35156C119.531 8.28906 120.148 8.34375 120.742 8.51562C120.805 8.71875 120.812 8.95312 120.766 9.21875C120.719 9.48438 120.57 9.65625 120.32 9.73438C120.07 9.6875 119.742 9.66406 119.336 9.66406C118.93 9.66406 118.5 9.69531 118.047 9.75781C117.594 9.82031 117.141 9.92188 116.688 10.0625C116.234 10.2031 115.82 10.3906 115.445 10.625C115.086 10.8438 114.789 11.1172 114.555 11.4453C114.336 11.7578 114.227 12.1328 114.227 12.5703V22.7422ZM123.817 21.7812C123.786 21.7188 123.747 21.6016 123.7 21.4297C123.653 21.2422 123.606 21.0391 123.559 20.8203C123.512 20.6016 123.473 20.3906 123.442 20.1875C123.411 19.9844 123.395 19.8359 123.395 19.7422V8.35156C123.395 8.19531 123.466 8.08594 123.606 8.02344C123.747 7.96094 123.903 7.92969 124.075 7.92969C124.262 7.91406 124.427 7.91406 124.567 7.92969C124.723 7.94531 124.809 7.95312 124.825 7.95312V20.5625C124.825 20.8281 124.911 21.0469 125.083 21.2188C125.255 21.3906 125.458 21.5312 125.692 21.6406C125.927 21.7344 126.169 21.7969 126.419 21.8281C126.669 21.8438 126.88 21.8281 127.052 21.7812C127.27 22.1094 127.262 22.375 127.028 22.5781C126.809 22.7656 126.489 22.875 126.067 22.9062C125.661 22.9219 125.231 22.8438 124.778 22.6719C124.341 22.4844 124.02 22.1875 123.817 21.7812ZM122.997 4.27344C122.997 3.82031 123.177 3.53125 123.536 3.40625C123.895 3.26562 124.262 3.28125 124.637 3.45312V4.69531C124.591 4.71094 124.505 4.72656 124.38 4.74219C124.27 4.74219 124.145 4.74219 124.005 4.74219C123.88 4.74219 123.755 4.74219 123.63 4.74219C123.52 4.72656 123.442 4.71094 123.395 4.69531C123.333 4.67969 123.247 4.61719 123.137 4.50781C123.044 4.39844 122.997 4.32031 122.997 4.27344ZM133.759 22.6016C133.103 22.0859 132.58 21.4844 132.189 20.7969C131.814 20.0938 131.525 19.3438 131.322 18.5469C131.228 18.625 131.088 18.7109 130.9 18.8047C130.713 18.8984 130.517 18.9766 130.314 19.0391C130.127 19.1016 129.939 19.1484 129.752 19.1797C129.564 19.1953 129.423 19.1719 129.33 19.1094C129.252 19.0469 129.228 18.9453 129.259 18.8047C129.306 18.6484 129.455 18.4219 129.705 18.125C129.736 18.0781 129.83 17.9766 129.986 17.8203C130.158 17.6641 130.338 17.5 130.525 17.3281C130.713 17.1406 130.884 16.9688 131.041 16.8125C131.197 16.6406 131.291 16.5312 131.322 16.4844C131.494 16.0938 131.595 15.6641 131.627 15.1953C131.673 14.7266 131.697 14.2422 131.697 13.7422C131.713 13.2266 131.744 12.7188 131.791 12.2188C131.838 11.7188 131.955 11.25 132.142 10.8125C132.252 10.5625 132.455 10.2578 132.752 9.89844C133.064 9.52344 133.408 9.16406 133.783 8.82031C134.173 8.47656 134.564 8.17188 134.955 7.90625C135.361 7.625 135.705 7.45312 135.986 7.39062C136.283 7.32812 136.494 7.39844 136.619 7.60156C136.759 7.80469 136.759 8.19531 136.619 8.77344C136.447 9.46094 136.181 10.1328 135.822 10.7891C135.478 11.4297 135.119 12.0703 134.744 12.7109C134.369 13.3359 134.009 13.9609 133.666 14.5859C133.338 15.2109 133.103 15.8438 132.963 16.4844C132.884 16.8281 132.845 17.25 132.845 17.75C132.845 18.2344 132.9 18.7188 133.009 19.2031C133.119 19.6875 133.298 20.1328 133.548 20.5391C133.798 20.9297 134.142 21.2031 134.58 21.3594C135.08 21.5469 135.58 21.5938 136.08 21.5C136.58 21.4062 137.064 21.2266 137.533 20.9609C138.017 20.6953 138.478 20.3672 138.916 19.9766C139.353 19.5703 139.759 19.1562 140.134 18.7344C140.509 18.3125 140.845 17.9062 141.142 17.5156C141.439 17.1094 141.689 16.7656 141.892 16.4844L142.291 16.9062C142.4 17 142.33 17.2656 142.08 17.7031C141.845 18.1406 141.494 18.6406 141.025 19.2031C140.572 19.75 140.033 20.3125 139.408 20.8906C138.783 21.4688 138.134 21.9531 137.463 22.3438C136.806 22.7344 136.15 22.9766 135.494 23.0703C134.853 23.1641 134.275 23.0078 133.759 22.6016ZM132.963 12.4062C132.947 12.4844 132.931 12.625 132.916 12.8281C132.916 13.0156 132.916 13.2188 132.916 13.4375C132.916 13.6562 132.916 13.8594 132.916 14.0469C132.931 14.2344 132.947 14.3672 132.963 14.4453C133.463 13.5859 133.931 12.6719 134.369 11.7031C134.806 10.7344 135.15 9.75781 135.4 8.77344C135.041 8.89844 134.713 9.09375 134.416 9.35938C134.134 9.60938 133.892 9.90625 133.689 10.25C133.486 10.5781 133.322 10.9297 133.197 11.3047C133.088 11.6797 133.009 12.0469 132.963 12.4062ZM144.006 22.6016C144.022 22.3984 144.03 22.0469 144.03 21.5469V18.3594C144.03 17.8594 144.022 17.5078 144.006 17.3047C143.991 17.2109 143.959 17.0078 143.913 16.6953C143.881 16.3828 143.834 16.0156 143.772 15.5938C143.725 15.1719 143.67 14.7266 143.608 14.2578C143.545 13.7891 143.483 13.3438 143.42 12.9219C143.358 12.5 143.303 12.1328 143.256 11.8203C143.225 11.5078 143.202 11.2969 143.186 11.1875C143.155 10.9688 143.139 10.7422 143.139 10.5078C143.155 10.2734 143.202 10.0703 143.28 9.89844C143.358 9.72656 143.483 9.60938 143.655 9.54688C143.827 9.46875 144.077 9.48438 144.405 9.59375C144.42 9.92188 144.444 10.3125 144.475 10.7656C144.522 11.2031 144.577 11.6641 144.639 12.1484C144.702 12.6328 144.78 13.1094 144.873 13.5781C144.967 14.0469 145.084 14.4766 145.225 14.8672C145.428 14.2891 145.623 13.7812 145.811 13.3438C146.014 12.8906 146.241 12.4766 146.491 12.1016C146.741 11.7266 147.022 11.375 147.334 11.0469C147.647 10.7031 148.022 10.3516 148.459 9.99219C149.006 9.53906 149.459 9.35938 149.819 9.45312C150.194 9.53125 150.498 9.79688 150.733 10.25C150.983 10.6875 151.186 11.2578 151.342 11.9609C151.498 12.6641 151.639 13.4141 151.764 14.2109C151.889 14.9922 152.014 15.7656 152.139 16.5312C152.28 17.2812 152.452 17.9375 152.655 18.5C152.858 19.0469 153.108 19.4531 153.405 19.7188C153.717 19.9688 154.108 19.9766 154.577 19.7422C154.717 20.1641 154.733 20.4766 154.623 20.6797C154.53 20.8672 154.358 20.9766 154.108 21.0078C153.873 21.0234 153.592 20.9609 153.264 20.8203C152.936 20.6641 152.608 20.4609 152.28 20.2109C151.967 19.9453 151.686 19.6328 151.436 19.2734C151.186 18.9141 151.014 18.5312 150.92 18.125C150.858 17.8438 150.803 17.3828 150.756 16.7422C150.709 16.1016 150.639 15.4141 150.545 14.6797C150.452 13.9453 150.303 13.2266 150.1 12.5234C149.913 11.8047 149.639 11.2344 149.28 10.8125L147.639 12.4062C147.592 12.4688 147.475 12.75 147.288 13.25C147.116 13.75 146.92 14.3281 146.702 14.9844C146.483 15.625 146.272 16.2812 146.069 16.9531C145.866 17.6094 145.717 18.1406 145.623 18.5469C145.592 18.6875 145.553 18.9531 145.506 19.3438C145.459 19.7188 145.413 20.125 145.366 20.5625C145.319 21 145.28 21.4141 145.248 21.8047C145.233 22.1797 145.225 22.4453 145.225 22.6016C145.084 22.8828 144.881 23.0234 144.616 23.0234C144.35 23.0234 144.147 22.8828 144.006 22.6016ZM156.269 21.7812C156.081 21.4219 155.964 20.9297 155.917 20.3047C155.87 19.6641 155.878 18.9531 155.941 18.1719C156.019 17.3906 156.144 16.5781 156.316 15.7344C156.503 14.8906 156.73 14.0859 156.995 13.3203C157.277 12.5547 157.589 11.8594 157.933 11.2344C158.292 10.5938 158.683 10.1016 159.105 9.75781C159.527 9.39844 159.98 9.22656 160.464 9.24219C160.948 9.24219 161.448 9.49219 161.964 9.99219L162.761 3.45312C162.777 3.39062 162.839 3.3125 162.948 3.21875C163.058 3.10938 163.136 3.05469 163.183 3.05469C163.245 3.05469 163.323 3.07031 163.417 3.10156C163.511 3.13281 163.597 3.17188 163.675 3.21875C163.769 3.25 163.847 3.28906 163.909 3.33594C163.972 3.38281 164.003 3.42188 164.003 3.45312V14.8672C164.003 15.7266 164.152 16.4688 164.448 17.0938C164.745 17.7188 165.136 18.1797 165.62 18.4766C166.105 18.7734 166.659 18.875 167.284 18.7812C167.925 18.6719 168.589 18.3203 169.277 17.7266C169.495 17.7266 169.597 17.8281 169.581 18.0312C169.566 18.2188 169.472 18.4453 169.3 18.7109C169.144 18.9766 168.909 19.25 168.597 19.5312C168.3 19.8125 167.964 20.0469 167.589 20.2344C167.23 20.4062 166.839 20.5 166.417 20.5156C166.011 20.5312 165.613 20.4062 165.222 20.1406C164.909 19.9375 164.628 19.6953 164.378 19.4141C164.128 19.1328 163.902 18.8281 163.698 18.5C163.511 18.1719 163.331 17.8359 163.159 17.4922C163.003 17.1484 162.87 16.8125 162.761 16.4844C162.698 16.625 162.589 16.8359 162.433 17.1172C162.292 17.3828 162.128 17.6953 161.941 18.0547C161.753 18.3984 161.558 18.7656 161.355 19.1562C161.152 19.5312 160.956 19.8984 160.769 20.2578C160.581 20.6016 160.409 20.9141 160.253 21.1953C160.097 21.4609 159.98 21.6562 159.902 21.7812C159.683 22.1875 159.409 22.4922 159.081 22.6953C158.753 22.8984 158.409 23 158.05 23C157.706 23 157.37 22.8984 157.042 22.6953C156.73 22.4922 156.472 22.1875 156.269 21.7812ZM157.488 20.9609C157.503 21.0078 157.542 21.0703 157.605 21.1484C157.667 21.2109 157.738 21.2734 157.816 21.3359C157.894 21.3828 157.972 21.4141 158.05 21.4297C158.144 21.4453 158.23 21.4219 158.308 21.3594C159.073 20.7812 159.691 20.0938 160.159 19.2969C160.644 18.5 161.034 17.6562 161.331 16.7656C161.628 15.875 161.863 14.9688 162.034 14.0469C162.206 13.1094 162.37 12.2188 162.527 11.375C161.683 11.2656 160.956 11.3359 160.347 11.5859C159.753 11.8203 159.253 12.1797 158.847 12.6641C158.441 13.1484 158.12 13.7266 157.886 14.3984C157.652 15.0703 157.488 15.7812 157.394 16.5312C157.3 17.2656 157.261 18.0234 157.277 18.8047C157.308 19.5703 157.378 20.2891 157.488 20.9609ZM170.898 22.6016C170.555 22.3828 170.297 22.0469 170.125 21.5938C169.969 21.125 169.852 20.6406 169.773 20.1406C169.711 19.625 169.68 19.1484 169.68 18.7109V17.7266C169.68 17.5547 169.688 17.2109 169.703 16.6953C169.719 16.1641 169.742 15.5547 169.773 14.8672C169.805 14.1641 169.836 13.4219 169.867 12.6406C169.898 11.8438 169.93 11.1016 169.961 10.4141C169.992 9.71094 170.016 9.10156 170.031 8.58594C170.062 8.07031 170.078 7.72656 170.078 7.55469C170.078 7.32031 170.078 6.91406 170.078 6.33594C170.094 5.75781 170.102 5.14844 170.102 4.50781C170.102 3.85156 170.094 3.23438 170.078 2.65625C170.078 2.07812 170.078 1.67188 170.078 1.4375C170.312 1.26562 170.516 1.14844 170.688 1.08594C170.844 1.02344 170.984 1.01562 171.109 1.0625C171.234 1.09375 171.297 1.21875 171.297 1.4375V20.5625C171.297 20.6719 171.328 20.8047 171.391 20.9609C171.469 21.1016 171.562 21.2266 171.672 21.3359C171.781 21.4453 171.906 21.5156 172.047 21.5469C172.203 21.5625 172.359 21.5 172.516 21.3594L175.352 18.9453C175.43 19.3047 175.422 19.6797 175.328 20.0703C175.234 20.4609 175.078 20.8281 174.859 21.1719C174.656 21.5156 174.398 21.8281 174.086 22.1094C173.773 22.3906 173.438 22.6094 173.078 22.7656C172.719 22.9062 172.352 22.9766 171.977 22.9766C171.602 22.9609 171.242 22.8359 170.898 22.6016ZM186.091 29.9141C185.7 29.6484 185.427 29.2969 185.27 28.8594C185.13 28.4219 185.067 27.9375 185.083 27.4062C185.098 26.875 185.177 26.3125 185.317 25.7188C185.458 25.1406 185.622 24.5781 185.809 24.0312C185.997 23.4844 186.192 22.9766 186.395 22.5078C186.598 22.0391 186.77 21.6562 186.911 21.3594C186.973 21.2188 187.075 21 187.216 20.7031C187.356 20.4062 187.52 20.0703 187.708 19.6953L188.88 17.3516C189.067 16.9766 189.239 16.6406 189.395 16.3438C189.552 16.0469 189.669 15.8281 189.747 15.6875C189.825 14.9531 189.77 14.375 189.583 13.9531C189.411 13.5312 189.161 13.2422 188.833 13.0859C188.505 12.9297 188.122 12.8906 187.684 12.9688C187.262 13.0469 186.825 13.2109 186.372 13.4609C185.934 13.7109 185.505 14.0312 185.083 14.4219C184.677 14.7969 184.333 15.2188 184.052 15.6875C183.958 15.7656 183.794 15.9531 183.559 16.25C183.325 16.5312 183.044 16.8828 182.716 17.3047C182.387 17.7109 182.02 18.1562 181.614 18.6406C181.223 19.125 180.817 19.6016 180.395 20.0703C179.989 20.5234 179.591 20.9453 179.2 21.3359C178.809 21.7266 178.442 22.0312 178.098 22.25C177.77 22.4688 177.481 22.5859 177.231 22.6016C176.997 22.6172 176.833 22.4766 176.739 22.1797C176.723 22.1641 176.708 22.1172 176.692 22.0391C176.692 21.9609 176.692 21.8828 176.692 21.8047C176.692 21.7109 176.692 21.625 176.692 21.5469C176.708 21.4688 176.723 21.4062 176.739 21.3594C176.77 21.2031 176.833 20.875 176.927 20.375C177.036 19.875 177.153 19.2891 177.278 18.6172C177.419 17.9453 177.567 17.2266 177.723 16.4609C177.88 15.6953 178.02 14.9766 178.145 14.3047C178.286 13.6328 178.411 13.0547 178.52 12.5703C178.63 12.0703 178.708 11.7422 178.755 11.5859C178.786 11.4453 178.887 11.2578 179.059 11.0234C179.231 10.7891 179.427 10.5938 179.645 10.4375C179.864 10.2812 180.075 10.2109 180.278 10.2266C180.497 10.2422 180.669 10.4219 180.794 10.7656C180.637 11 180.458 11.3672 180.255 11.8672C180.052 12.3672 179.848 12.9297 179.645 13.5547C179.458 14.1797 179.27 14.8438 179.083 15.5469C178.895 16.2344 178.731 16.8984 178.591 17.5391C178.466 18.1797 178.38 18.7734 178.333 19.3203C178.286 19.8516 178.294 20.2656 178.356 20.5625C179.012 19.6719 179.747 18.7266 180.559 17.7266C181.372 16.7266 182.2 15.7812 183.044 14.8906C183.887 14 184.723 13.2266 185.552 12.5703C186.395 11.9141 187.169 11.4922 187.872 11.3047C188.591 11.1172 189.216 11.2266 189.747 11.6328C190.294 12.0234 190.7 12.8281 190.966 14.0469L193.825 11.6094H195.044C195.184 12.0469 195.177 12.3438 195.02 12.5C194.88 12.6562 194.669 12.7812 194.387 12.875C194.106 12.9531 193.794 13.0469 193.45 13.1562C193.122 13.25 192.841 13.4531 192.606 13.7656C192.387 14.0781 192.255 14.5391 192.208 15.1484C192.161 15.7578 192.286 16.6172 192.583 17.7266C192.802 18.5078 192.95 19.3125 193.028 20.1406C193.122 20.9688 193.114 21.7891 193.005 22.6016C192.958 22.9609 192.833 23.4453 192.63 24.0547C192.442 24.6797 192.192 25.3281 191.88 26C191.567 26.6719 191.2 27.3281 190.778 27.9688C190.356 28.6094 189.895 29.1406 189.395 29.5625C188.911 29.9844 188.387 30.2422 187.825 30.3359C187.262 30.4453 186.684 30.3047 186.091 29.9141ZM186.489 27.875C186.614 28.4688 186.817 28.8438 187.098 29C187.395 29.1562 187.731 29.1406 188.106 28.9531C188.481 28.7656 188.872 28.4297 189.278 27.9453C189.7 27.4609 190.083 26.8828 190.427 26.2109C190.786 25.5391 191.091 24.7891 191.341 23.9609C191.591 23.1484 191.739 22.3125 191.786 21.4531C191.848 20.5938 191.786 19.7422 191.598 18.8984C191.411 18.0391 191.059 17.2344 190.544 16.4844C190.184 16.75 189.825 17.1562 189.466 17.7031C189.106 18.25 188.762 18.875 188.434 19.5781C188.122 20.2812 187.825 21.0312 187.544 21.8281C187.262 22.6094 187.028 23.375 186.841 24.125C186.669 24.8906 186.544 25.6016 186.466 26.2578C186.403 26.9141 186.411 27.4531 186.489 27.875ZM215.092 21.3594C214.748 20.7812 214.483 20.1328 214.295 19.4141C214.108 18.6797 213.975 17.9297 213.897 17.1641C213.819 16.3984 213.78 15.6406 213.78 14.8906C213.795 14.1406 213.819 13.4531 213.85 12.8281C213.631 12.7656 213.381 12.7812 213.1 12.875C212.819 12.9688 212.522 13.0938 212.209 13.25C211.897 13.3906 211.577 13.5469 211.248 13.7188C210.92 13.8906 210.616 14.0156 210.334 14.0938C210.053 14.1719 209.795 14.1875 209.561 14.1406C209.327 14.0938 209.139 13.9297 208.998 13.6484C208.858 13.3828 208.866 13.1719 209.022 13.0156C209.194 12.8594 209.436 12.7422 209.748 12.6641C210.077 12.5703 210.452 12.5078 210.873 12.4766C211.295 12.4297 211.694 12.375 212.069 12.3125C212.444 12.25 212.764 12.1719 213.03 12.0781C213.295 11.9688 213.436 11.8125 213.452 11.6094L214.272 2.67969C214.288 2.53906 214.358 2.42969 214.483 2.35156C214.623 2.27344 214.764 2.23438 214.905 2.23438C215.061 2.23438 215.194 2.27344 215.303 2.35156C215.428 2.41406 215.491 2.52344 215.491 2.67969V10.3906C215.709 10.4375 215.92 10.4375 216.123 10.3906C216.327 10.3281 216.53 10.2578 216.733 10.1797C216.936 10.1016 217.131 10.0391 217.319 9.99219C217.522 9.94531 217.733 9.94531 217.952 9.99219C218.045 10.1641 218.03 10.3281 217.905 10.4844C217.78 10.625 217.655 10.7344 217.53 10.8125L217.108 11.0703C216.92 11.1797 216.717 11.3047 216.498 11.4453C216.295 11.5703 216.092 11.6875 215.889 11.7969C215.702 11.9062 215.569 11.9766 215.491 12.0078C215.475 12.2266 215.459 12.6094 215.444 13.1562C215.444 13.6875 215.444 14.2578 215.444 14.8672C215.444 15.4766 215.444 16.0547 215.444 16.6016C215.459 17.1328 215.475 17.5078 215.491 17.7266C215.553 18.4609 215.694 19.1328 215.913 19.7422C216.131 20.3516 216.428 20.8281 216.803 21.1719C217.178 21.5156 217.623 21.6875 218.139 21.6875C218.67 21.6875 219.288 21.4453 219.991 20.9609C220.1 21.3203 220.092 21.6406 219.967 21.9219C219.842 22.2031 219.639 22.4297 219.358 22.6016C219.077 22.7578 218.741 22.8594 218.35 22.9062C217.959 22.9531 217.561 22.9297 217.155 22.8359C216.764 22.7422 216.381 22.5781 216.006 22.3438C215.631 22.0938 215.327 21.7656 215.092 21.3594ZM224.894 22.6016C224.238 22.0859 223.714 21.4844 223.323 20.7969C222.948 20.0938 222.659 19.3438 222.456 18.5469C222.363 18.625 222.222 18.7109 222.034 18.8047C221.847 18.8984 221.652 18.9766 221.448 19.0391C221.261 19.1016 221.073 19.1484 220.886 19.1797C220.698 19.1953 220.558 19.1719 220.464 19.1094C220.386 19.0469 220.363 18.9453 220.394 18.8047C220.441 18.6484 220.589 18.4219 220.839 18.125C220.87 18.0781 220.964 17.9766 221.12 17.8203C221.292 17.6641 221.472 17.5 221.659 17.3281C221.847 17.1406 222.019 16.9688 222.175 16.8125C222.331 16.6406 222.425 16.5312 222.456 16.4844C222.628 16.0938 222.73 15.6641 222.761 15.1953C222.808 14.7266 222.831 14.2422 222.831 13.7422C222.847 13.2266 222.878 12.7188 222.925 12.2188C222.972 11.7188 223.089 11.25 223.277 10.8125C223.386 10.5625 223.589 10.2578 223.886 9.89844C224.198 9.52344 224.542 9.16406 224.917 8.82031C225.308 8.47656 225.698 8.17188 226.089 7.90625C226.495 7.625 226.839 7.45312 227.12 7.39062C227.417 7.32812 227.628 7.39844 227.753 7.60156C227.894 7.80469 227.894 8.19531 227.753 8.77344C227.581 9.46094 227.316 10.1328 226.956 10.7891C226.613 11.4297 226.253 12.0703 225.878 12.7109C225.503 13.3359 225.144 13.9609 224.8 14.5859C224.472 15.2109 224.238 15.8438 224.097 16.4844C224.019 16.8281 223.98 17.25 223.98 17.75C223.98 18.2344 224.034 18.7188 224.144 19.2031C224.253 19.6875 224.433 20.1328 224.683 20.5391C224.933 20.9297 225.277 21.2031 225.714 21.3594C226.214 21.5469 226.714 21.5938 227.214 21.5C227.714 21.4062 228.198 21.2266 228.667 20.9609C229.152 20.6953 229.613 20.3672 230.05 19.9766C230.488 19.5703 230.894 19.1562 231.269 18.7344C231.644 18.3125 231.98 17.9062 232.277 17.5156C232.573 17.1094 232.823 16.7656 233.027 16.4844L233.425 16.9062C233.534 17 233.464 17.2656 233.214 17.7031C232.98 18.1406 232.628 18.6406 232.159 19.2031C231.706 19.75 231.167 20.3125 230.542 20.8906C229.917 21.4688 229.269 21.9531 228.597 22.3438C227.941 22.7344 227.284 22.9766 226.628 23.0703C225.988 23.1641 225.409 23.0078 224.894 22.6016ZM224.097 12.4062C224.081 12.4844 224.066 12.625 224.05 12.8281C224.05 13.0156 224.05 13.2188 224.05 13.4375C224.05 13.6562 224.05 13.8594 224.05 14.0469C224.066 14.2344 224.081 14.3672 224.097 14.4453C224.597 13.5859 225.066 12.6719 225.503 11.7031C225.941 10.7344 226.284 9.75781 226.534 8.77344C226.175 8.89844 225.847 9.09375 225.55 9.35938C225.269 9.60938 225.027 9.90625 224.823 10.25C224.62 10.5781 224.456 10.9297 224.331 11.3047C224.222 11.6797 224.144 12.0469 224.097 12.4062ZM234.508 22.6016C234.195 21.9453 234.023 21.2812 233.992 20.6094C233.977 19.9375 234.016 19.25 234.109 18.5469C234.125 18.3281 234.164 18 234.227 17.5625C234.289 17.125 234.359 16.6406 234.438 16.1094C234.516 15.5781 234.602 15.0156 234.695 14.4219C234.789 13.8281 234.875 13.2656 234.953 12.7344C235.031 12.2031 235.102 11.7344 235.164 11.3281C235.242 10.9062 235.297 10.5938 235.328 10.3906C235.453 9.73438 235.586 9.17969 235.727 8.72656C235.883 8.25781 236.086 7.89844 236.336 7.64844C236.602 7.39844 236.938 7.26562 237.344 7.25C237.766 7.23438 238.305 7.33594 238.961 7.55469C239.039 7.57031 239.125 7.63281 239.219 7.74219C239.312 7.83594 239.367 7.90625 239.383 7.95312C239.414 8.15625 239.469 8.46875 239.547 8.89062C239.641 9.3125 239.742 9.79688 239.852 10.3438C239.961 10.875 240.07 11.4375 240.18 12.0312C240.305 12.6094 240.422 13.1719 240.531 13.7188C240.641 14.25 240.734 14.7266 240.812 15.1484C240.906 15.5703 240.977 15.8828 241.023 16.0859C241.258 17.1953 241.547 17.9688 241.891 18.4062C242.234 18.8281 242.602 19.0469 242.992 19.0625C243.383 19.0781 243.781 18.9531 244.188 18.6875C244.609 18.4062 245.023 18.1172 245.43 17.8203C245.836 17.5078 246.219 17.2422 246.578 17.0234C246.938 16.8047 247.25 16.7656 247.516 16.9062C247.516 17.2031 247.445 17.4922 247.305 17.7734C247.164 18.0547 246.992 18.3203 246.789 18.5703C246.602 18.8047 246.391 19.0234 246.156 19.2266C245.922 19.4297 245.703 19.6016 245.5 19.7422C244.625 20.3203 243.891 20.625 243.297 20.6562C242.719 20.6875 242.227 20.5547 241.82 20.2578C241.414 19.9609 241.086 19.5547 240.836 19.0391C240.586 18.5234 240.359 18 240.156 17.4688C239.969 16.9375 239.781 16.4688 239.594 16.0625C239.422 15.6406 239.211 15.375 238.961 15.2656C238.914 15.4688 238.812 15.8203 238.656 16.3203C238.516 16.8203 238.359 17.3516 238.188 17.9141C238.016 18.4766 237.852 19.0078 237.695 19.5078C237.539 20.0078 237.43 20.3594 237.367 20.5625C237.336 20.6406 237.266 20.7891 237.156 21.0078C237.062 21.2266 236.938 21.4688 236.781 21.7344C236.625 21.9844 236.445 22.2344 236.242 22.4844C236.055 22.7188 235.859 22.8984 235.656 23.0234C235.453 23.1641 235.25 23.2109 235.047 23.1641C234.844 23.1172 234.664 22.9297 234.508 22.6016ZM235.727 15.6875C235.695 15.875 235.672 16.2188 235.656 16.7188C235.656 17.2188 235.656 17.75 235.656 18.3125C235.656 18.875 235.656 19.4062 235.656 19.9062C235.672 20.4062 235.695 20.7578 235.727 20.9609C236.273 20.1328 236.766 19.1719 237.203 18.0781C237.641 16.9688 237.969 15.8281 238.188 14.6562C238.422 13.4688 238.516 12.2969 238.469 11.1406C238.422 9.96875 238.188 8.90625 237.766 7.95312C237.5 8.4375 237.25 9.04688 237.016 9.78125C236.781 10.5156 236.578 11.2656 236.406 12.0312C236.234 12.7812 236.086 13.4922 235.961 14.1641C235.852 14.8203 235.773 15.3281 235.727 15.6875ZM254.106 22.6016C254.137 21.9766 254.153 21.3203 254.153 20.6328C254.169 19.9297 254.161 19.2266 254.13 18.5234C254.098 17.8203 254.044 17.125 253.966 16.4375C253.903 15.7344 253.809 15.0703 253.684 14.4453C253.466 13.3047 253.184 12.4375 252.841 11.8438C252.512 11.2344 252.161 10.9141 251.786 10.8828C251.427 10.8359 251.083 11.0781 250.755 11.6094C250.442 12.125 250.2 12.9375 250.028 14.0469C249.997 14.2188 249.958 14.4844 249.911 14.8438C249.864 15.2031 249.809 15.6094 249.747 16.0625C249.7 16.5156 249.645 17 249.583 17.5156C249.536 18.0156 249.481 18.4922 249.419 18.9453C249.372 19.3984 249.333 19.8047 249.302 20.1641C249.27 20.5234 249.247 20.7891 249.231 20.9609C249.137 21.2109 248.958 21.3594 248.692 21.4062C248.442 21.4531 248.208 21.4375 247.989 21.3594L247.192 9.17188C247.177 8.96875 247.223 8.79688 247.333 8.65625C247.442 8.5 247.567 8.39844 247.708 8.35156C247.848 8.28906 247.989 8.28906 248.13 8.35156C248.27 8.41406 248.364 8.55469 248.411 8.77344L249.231 12.4062C249.716 11.2344 250.161 10.4062 250.567 9.92188C250.989 9.42188 251.38 9.16406 251.739 9.14844C252.098 9.13281 252.442 9.30469 252.77 9.66406C253.098 10.0234 253.403 10.4609 253.684 10.9766C253.981 11.4766 254.262 12.0156 254.528 12.5938C254.794 13.1562 255.059 13.6406 255.325 14.0469C255.966 11.8438 256.692 10.2578 257.505 9.28906C258.333 8.30469 259.122 7.89844 259.872 8.07031C260.637 8.24219 261.309 8.97656 261.887 10.2734C262.466 11.5547 262.848 13.3594 263.036 15.6875C263.067 16.0469 263.091 16.5234 263.106 17.1172C263.122 17.6953 263.13 18.2656 263.13 18.8281C263.13 19.3906 263.122 19.8828 263.106 20.3047C263.091 20.7109 263.067 20.9297 263.036 20.9609L262.637 21.3594L261.817 20.5625C261.911 19.75 261.934 18.9062 261.887 18.0312C261.856 17.1406 261.77 16.25 261.63 15.3594C261.505 14.4688 261.348 13.6016 261.161 12.7578C260.973 11.9141 260.786 11.125 260.598 10.3906C260.38 9.76562 260.114 9.40625 259.802 9.3125C259.489 9.20312 259.169 9.25781 258.841 9.47656C258.528 9.67969 258.239 9.99219 257.973 10.4141C257.708 10.8203 257.505 11.2188 257.364 11.6094C257.27 11.8438 257.153 12.1562 257.012 12.5469C256.887 12.9375 256.762 13.3281 256.637 13.7188C256.512 14.1094 256.403 14.4531 256.309 14.75C256.216 15.0469 256.161 15.2188 256.145 15.2656C256.083 15.5469 256.005 16.0312 255.911 16.7188C255.833 17.4062 255.747 18.1406 255.653 18.9219C255.575 19.7031 255.505 20.4453 255.442 21.1484C255.38 21.8359 255.341 22.3203 255.325 22.6016C255.325 22.8359 255.262 22.9688 255.137 23C255.012 23.0312 254.872 23.0156 254.716 22.9531C254.544 22.8906 254.341 22.7734 254.106 22.6016Z" fill="#C2410C"/>
</svg>
